<svg xmlns="http://www.w3.org/2000/svg" width="77" height="36" viewBox="0 0 77 36" fill="none"><g opacity="0.6"><path d="M52.5841 20.6761L53.3368 20.9019C53.2866 21.1151 53.2113 21.2907 53.0984 21.4287C52.9855 21.5667 52.8601 21.6796 52.697 21.7423C52.534 21.8176 52.3333 21.8552 52.0824 21.8552C51.7814 21.8552 51.543 21.8176 51.3423 21.7298C51.1542 21.642 50.9911 21.4914 50.8531 21.2657C50.7152 21.0524 50.6399 20.7639 50.6399 20.4252C50.6399 19.9737 50.7653 19.6224 51.0037 19.3716C51.242 19.1207 51.5932 19.0078 52.0322 19.0078C52.3834 19.0078 52.6469 19.0831 52.8476 19.2211C53.0483 19.359 53.1988 19.5723 53.2866 19.8733L52.534 20.0364C52.5089 19.9486 52.4838 19.8859 52.4462 19.8482C52.396 19.7855 52.3458 19.7353 52.2706 19.6977C52.1953 19.6601 52.12 19.6475 52.0448 19.6475C51.8566 19.6475 51.7061 19.7228 51.6057 19.8859C51.5305 19.9988 51.4929 20.1869 51.4929 20.4252C51.4929 20.7263 51.543 20.9395 51.6308 21.0524C51.7186 21.1653 51.8566 21.228 52.0197 21.228C52.1827 21.228 52.3082 21.1778 52.3834 21.09C52.4838 20.9772 52.5465 20.8517 52.5841 20.6761Z" fill="#919DE3"></path><path d="M53.6379 20.4261C53.6379 19.9745 53.7634 19.6233 54.0142 19.3724C54.2651 19.1215 54.6163 18.9961 55.0679 18.9961C55.532 18.9961 55.8832 19.1215 56.1341 19.3599C56.385 19.6107 56.5104 19.9494 56.5104 20.401C56.5104 20.7271 56.4602 20.9905 56.3473 21.1912C56.2345 21.3919 56.0839 21.555 55.8707 21.6679C55.67 21.7808 55.4066 21.8435 55.1055 21.8435C54.7919 21.8435 54.5411 21.7933 54.3278 21.693C54.1271 21.5926 53.9641 21.4421 53.8261 21.2163C53.6881 20.9905 53.6379 20.7522 53.6379 20.4261ZM54.4909 20.4261C54.4909 20.702 54.5411 20.9027 54.6414 21.0282C54.7418 21.1536 54.8798 21.2163 55.0679 21.2163C55.2561 21.2163 55.394 21.1536 55.4944 21.0407C55.5947 20.9153 55.6449 20.702 55.6449 20.401C55.6449 20.1376 55.5947 19.9494 55.4818 19.8365C55.3815 19.7111 55.231 19.6609 55.0554 19.6609C54.8798 19.6609 54.7418 19.7236 54.6414 19.8491C54.5411 19.9494 54.4909 20.1501 54.4909 20.4261Z" fill="#919DE3"></path><path d="M56.9501 19.0469H58.0665L58.493 20.7277L58.9195 19.0469H60.0358V21.8065H59.3334V19.6991L58.794 21.8065H58.1669L57.6275 19.6991V21.8065H56.925V19.0469H56.9501Z" fill="#919DE3"></path><path d="M60.5891 19.0469H62.0065C62.3201 19.0469 62.5459 19.1221 62.6964 19.2727C62.847 19.4232 62.9222 19.6239 62.9222 19.8998C62.9222 20.1758 62.8344 20.4016 62.6713 20.5521C62.5083 20.7152 62.2449 20.7904 61.9062 20.7904H61.4421V21.819H60.5891V19.0469ZM61.4421 20.226H61.6553C61.8184 20.226 61.9313 20.2009 62.0065 20.1382C62.0693 20.0754 62.1069 20.0127 62.1069 19.9249C62.1069 19.8371 62.0818 19.7619 62.0191 19.6991C61.9564 19.6364 61.856 19.6113 61.6929 19.6113H61.4546V20.226H61.4421Z" fill="#919DE3"></path><path d="M63.3743 19.0469H64.2272V21.1291H65.5568V21.8065H63.3743V19.0469Z" fill="#919DE3"></path><path d="M65.9797 19.0469H66.8327V21.8065H65.9797V19.0469Z" fill="#919DE3"></path><path d="M69.1405 21.3432H68.1746L68.0367 21.7947H67.1711L68.2123 19.0352H69.1405L70.1816 21.7947H69.291L69.1405 21.3432ZM68.9649 20.7536L68.6638 19.7627L68.3628 20.7536H68.9649Z" fill="#919DE3"></path><path d="M70.4465 19.0469H71.2368L72.2779 20.5772V19.0469H73.0807V21.8065H72.2779L71.2493 20.2887V21.8065H70.4465V19.0469Z" fill="#919DE3"></path><path d="M73.4563 19.0469H76.0528V19.7242H75.1873V21.8065H74.3343V19.7242H73.4688V19.0469H73.4563Z" fill="#919DE3"></path><path d="M42.3229 23.2485L44.794 22.4708L43.9912 20.6896C43.4017 21.4297 42.8121 22.383 42.3229 23.2485ZM41.4825 15.1078L36.6407 4.32031L1.19263 6.32728L11.0142 33.1203L29.9174 27.1621C28.7132 25.4311 28.2742 23.374 29.6665 22.3705C31.2219 21.2416 33.5675 22.5461 35.0602 24.39C36.5027 21.9816 40.5543 16.3747 41.4825 15.1078Z" fill="#919DE3"></path><path d="M35.5332 12.1145C37.0133 12.1145 38.2175 10.9856 38.2175 9.58067C38.2175 8.17579 37.0133 7.04688 35.5332 7.04688C34.0531 7.04688 32.8489 8.17579 32.8489 9.58067C32.8489 10.973 34.0531 12.1145 35.5332 12.1145ZM33.3381 13.2058H37.7283V24.6831H33.3381V13.2058Z" fill="#120728"></path><path d="M31.1688 16.5555C31.2064 16.568 31.2315 16.5555 31.2315 16.5179V13.6077C31.2315 13.5701 31.2064 13.5325 31.1688 13.5074C31.1688 13.5074 30.5918 13.1311 28.8357 13.0307C28.7479 12.9806 27.205 12.968 26.7911 13.0307C20.3938 13.545 20.1555 18.1736 20.1555 18.3743V19.5032C20.1555 19.6412 20.1555 24.3701 26.7911 24.7841C27.4433 24.8342 28.7102 24.7841 28.8357 24.7841C30.366 24.7841 31.4196 24.3199 31.4196 24.3199C31.4573 24.3074 31.4823 24.2698 31.4823 24.2321V21.5102C31.4823 21.4726 31.4573 21.46 31.4322 21.4851C31.4322 21.4851 30.9555 21.8614 28.8733 22.0746C28.2837 22.1374 27.9952 22.1123 27.782 22.0746C24.8217 21.5729 24.6837 19.4154 24.6837 19.4154C24.6837 19.3778 24.6712 19.3151 24.6712 19.29V18.4621C24.6712 18.4245 24.6712 18.3618 24.6837 18.3367C24.6837 18.3367 24.8844 16.0161 27.782 15.7652H28.8733C30.1402 15.9283 31.1688 16.5555 31.1688 16.5555Z" fill="#120728"></path><path d="M7.96411 24.6448C7.96411 24.6824 7.9892 24.7075 8.02683 24.7075H12.3042C12.3418 24.7075 12.3669 24.6824 12.3669 24.6448V21.3082C12.3669 21.2705 12.392 21.2454 12.4296 21.2454C12.4296 21.2454 19.2659 21.7346 19.2659 17.1562C19.2659 13.5312 14.976 13.1423 13.5711 13.205C13.546 13.205 8.02683 13.205 8.02683 13.205C7.9892 13.205 7.96411 13.2301 7.96411 13.2678V24.6448ZM12.2916 18.6991V15.7012H13.3453C13.3453 15.7012 14.8631 15.7639 14.9885 16.805C15.0136 16.8803 15.0136 17.3946 14.9885 17.4197C14.7878 18.6364 13.4707 18.6991 13.4707 18.6991H12.2916Z" fill="#120728"></path><path d="M35.6624 30.2218C36.0136 30.2218 36.2896 30.2218 36.7411 30.0211C38.2965 29.2058 43.5523 16.3737 49.0965 12.4225C49.1342 12.3974 49.1718 12.3598 49.1969 12.3222C49.2345 12.272 49.2345 12.2218 49.2345 12.2218C49.2345 12.2218 49.2345 11.9584 48.4192 11.9584C43.4896 11.8204 38.3593 22.1689 35.6624 26.258C35.6248 26.3082 35.4492 26.258 35.4492 26.258C35.4492 26.258 33.6429 24.1256 32.0749 23.3103C32.0373 23.2978 31.8617 23.2351 31.6735 23.2476C31.5481 23.2476 30.8206 23.3981 30.4819 23.7493C30.0805 24.1758 30.0931 24.4141 30.0931 24.9284C30.0931 24.9661 30.1181 25.1417 30.1683 25.2295C30.5572 25.9068 32.3007 28.3152 33.7432 29.6448C33.9565 29.8079 34.2952 30.2218 35.6624 30.2218Z" fill="#919DE3"></path><path d="M50.552 8.55078H54.6537C55.4691 8.55078 56.1213 8.66367 56.6105 8.87691C57.1123 9.1027 57.5262 9.41629 57.8398 9.81768C58.1659 10.2316 58.4043 10.7083 58.5422 11.2476C58.6928 11.787 58.768 12.364 58.768 12.9787C58.768 13.932 58.6551 14.672 58.4419 15.1989C58.2287 15.7257 57.9276 16.1647 57.5388 16.5285C57.1499 16.8797 56.736 17.118 56.297 17.2435C55.6949 17.4065 55.1429 17.4818 54.6537 17.4818H50.552V8.55078ZM53.3116 10.5703V15.4497H53.9889C54.5659 15.4497 54.9799 15.387 55.2182 15.2616C55.4565 15.1361 55.6572 14.9104 55.7952 14.5968C55.9332 14.2832 56.0084 13.7564 56.0084 13.0414C56.0084 12.0881 55.8579 11.4483 55.5443 11.0971C55.2307 10.7459 54.729 10.5703 54.0015 10.5703H53.3116Z" fill="#919DE3"></path><path d="M59.5327 14.5331L62.1669 14.37C62.2296 14.7965 62.3425 15.1226 62.5181 15.3484C62.8066 15.7122 63.208 15.8878 63.7348 15.8878C64.1237 15.8878 64.4372 15.8 64.6505 15.6118C64.8637 15.4237 64.9766 15.2104 64.9766 14.9721C64.9766 14.7463 64.8763 14.5331 64.6756 14.3449C64.4749 14.1568 63.9982 13.9937 63.2581 13.8306C62.0414 13.5547 61.1885 13.1909 60.6616 12.7393C60.1348 12.2878 59.8839 11.7108 59.8839 11.0083C59.8839 10.5442 60.0219 10.1177 60.2853 9.70379C60.5487 9.28986 60.9501 8.97627 61.4895 8.73794C62.0289 8.49961 62.7564 8.38672 63.6846 8.38672C64.8261 8.38672 65.7041 8.59996 66.2937 9.02644C66.8958 9.45292 67.247 10.1303 67.3599 11.0585L64.7508 11.209C64.6756 10.8076 64.5376 10.5191 64.3118 10.331C64.086 10.1428 63.785 10.055 63.3961 10.055C63.07 10.055 62.8317 10.1177 62.6686 10.2557C62.5055 10.3937 62.4303 10.5568 62.4303 10.7575C62.4303 10.8954 62.493 11.0334 62.631 11.1463C62.7564 11.2592 63.07 11.3721 63.5592 11.4724C64.7634 11.7358 65.6289 11.9993 66.1557 12.2627C66.6825 12.5261 67.0588 12.8648 67.2972 13.2536C67.5355 13.6425 67.6484 14.094 67.6484 14.5832C67.6484 15.1602 67.4853 15.6871 67.1717 16.1637C66.8582 16.6529 66.4066 17.0167 65.8421 17.2676C65.2777 17.5184 64.5501 17.6439 63.6846 17.6439C62.1669 17.6439 61.1132 17.3554 60.5237 16.7658C59.9467 16.1763 59.6205 15.4362 59.5327 14.5331Z" fill="#919DE3"></path><path d="M68.3489 14.5331L70.983 14.37C71.0457 14.7965 71.1586 15.1226 71.3342 15.3484C71.6227 15.7122 72.0241 15.8878 72.551 15.8878C72.9398 15.8878 73.2534 15.8 73.4666 15.6118C73.6799 15.4237 73.7928 15.2104 73.7928 14.9721C73.7928 14.7463 73.6924 14.5331 73.4917 14.3449C73.291 14.1568 72.8144 13.9937 72.0743 13.8306C70.8576 13.5547 70.0046 13.1909 69.4778 12.7393C68.9635 12.2878 68.7001 11.7108 68.7001 11.0083C68.7001 10.5442 68.8381 10.1177 69.1015 9.70379C69.3649 9.28986 69.7663 8.97627 70.3057 8.73794C70.845 8.49961 71.5726 8.38672 72.5008 8.38672C73.6423 8.38672 74.5203 8.59996 75.1098 9.02644C75.7119 9.45292 76.0632 10.1303 76.1761 11.0585L73.567 11.209C73.4917 10.8076 73.3538 10.5191 73.128 10.331C72.9022 10.1428 72.6011 10.055 72.2123 10.055C71.8862 10.055 71.6478 10.1177 71.4848 10.2557C71.3217 10.3937 71.2464 10.5568 71.2464 10.7575C71.2464 10.8954 71.3092 11.0334 71.4471 11.1463C71.5726 11.2592 71.8862 11.3721 72.3754 11.4724C73.5795 11.7358 74.445 11.9993 74.9719 12.2627C75.4987 12.5261 75.875 12.8648 76.1133 13.2536C76.3517 13.6425 76.4646 14.094 76.4646 14.5832C76.4646 15.1602 76.3015 15.6871 75.9879 16.1637C75.6743 16.6529 75.2227 17.0167 74.6583 17.2676C74.0938 17.5184 73.3663 17.6439 72.5008 17.6439C70.983 17.6439 69.9294 17.3554 69.3398 16.7658C68.7503 16.1763 68.4241 15.4362 68.3489 14.5331Z" fill="#919DE3"></path></g></svg>