<svg xmlns="http://www.w3.org/2000/svg" width="81" height="36" viewBox="0 0 81 36" fill="none"><g opacity="0.6"><path d="M16.8901 1.80078C25.8373 1.80927 33.0831 9.06914 33.0746 18.0163C33.0661 26.9636 25.8062 34.2093 16.859 34.2008C7.92312 34.1923 0.681174 26.9494 0.674568 18.0126C0.666075 9.06726 7.9099 1.80927 16.8552 1.80078C16.8665 1.80078 16.8779 1.80078 16.8901 1.80078ZM11.4441 26.319C14.9565 25.0705 18.7926 25.0695 22.306 26.3171L22.8109 24.4175C23.044 24.4175 23.2573 24.4118 23.4724 24.4193C23.6942 24.4014 23.9169 24.4137 24.1349 24.458C23.983 25.246 23.7914 26.0265 23.5593 26.7946C24.1576 27.1249 24.7521 27.4241 25.3174 27.7714C25.8826 28.1177 26.4177 28.5084 26.9641 28.8793C33.5323 22.8604 33.1227 12.6231 26.9386 7.10814C25.8949 7.92916 24.7578 8.62466 23.5508 9.17861C23.7801 9.99114 23.999 10.7697 24.1434 11.5728H22.7986C22.7165 11.2491 22.642 10.9396 22.5599 10.6329C22.4891 10.312 22.3957 9.99774 22.2787 9.69104C18.7738 10.9329 14.948 10.9311 11.4441 9.68538L10.9373 11.5907C10.7042 11.5907 10.489 11.5917 10.2748 11.5907C10.0559 11.5888 9.83694 11.585 9.57648 11.5813L10.187 9.17201C8.98289 8.61994 7.84951 7.92633 6.8105 7.10342C0.283877 13.0553 0.558493 23.2916 6.8105 28.8925C7.85706 28.0705 8.9961 27.3741 10.204 26.8182C9.9615 26.0321 9.7605 25.2328 9.6029 24.4259H10.9439L11.4441 26.319ZM21.8408 8.42649C21.8332 8.37364 21.8219 8.32174 21.8078 8.26983C21.3963 7.16099 20.832 6.11537 20.1327 5.16223C19.6825 4.53656 19.1144 4.00432 18.4605 3.5957C17.5479 3.004 16.3824 2.97191 15.4387 3.51265C14.8319 3.85332 14.2969 4.30819 13.8637 4.8527C13.1672 5.71335 12.6001 6.67121 12.1783 7.69512C12.0792 7.92444 11.9886 8.15753 11.8829 8.41611C15.1018 9.57119 18.6209 9.57497 21.8408 8.42649ZM11.8989 27.5751C11.9216 27.6525 11.931 27.6977 11.947 27.7393C12.3311 28.7679 12.8445 29.7427 13.4749 30.6421C13.8873 31.2357 14.3922 31.7604 14.9707 32.1945C16.1852 33.0806 17.5026 33.0919 18.7294 32.2284C19.1494 31.9283 19.5287 31.5745 19.8581 31.1772C20.6961 30.14 21.3567 28.9708 21.8125 27.7176C21.8257 27.6694 21.8342 27.6204 21.8389 27.5713C18.6237 26.4275 15.1132 26.4294 11.8989 27.5751ZM20.664 32.3407C22.5674 31.8613 24.352 30.9941 25.9034 29.7918C25.0512 29.1293 24.1264 28.566 23.1478 28.112C22.776 28.8698 22.4344 29.6087 22.055 30.3278C21.6634 31.045 21.1972 31.7198 20.664 32.3407ZM13.1002 32.3464C12.5623 31.733 12.0933 31.0611 11.7026 30.3439C11.3157 29.6191 10.975 28.8708 10.6032 28.1111C9.62366 28.566 8.69789 29.1293 7.84573 29.7918C9.40284 30.995 11.1911 31.8651 13.1002 32.3464ZM23.0987 7.88386C23.815 7.64227 25.6118 6.52871 25.8619 6.17388C24.317 4.98482 22.5438 4.127 20.6527 3.65326C21.7445 4.90366 22.4929 6.3428 23.0987 7.88386ZM13.0738 3.66364C11.1808 4.13927 9.40567 5.00181 7.86083 6.19558C8.41573 6.71179 10.1333 7.74231 10.658 7.87254C11.2204 6.34375 12.0367 4.92065 13.0738 3.66364Z" fill="#919DE3"></path><path d="M29.4388 18.015C29.4472 18.769 29.2793 19.5155 28.9499 20.193C28.5271 21.0207 27.8165 21.6652 26.9512 22.0049C26.3227 22.2541 25.6564 22.3928 24.9807 22.4173C24.1937 22.4796 23.4019 22.3937 22.647 22.1654C21.0134 21.6416 20.0348 20.5403 19.7857 18.8247C19.662 18.0433 19.7121 17.2449 19.9319 16.4852C20.2632 15.3264 21.1248 14.395 22.2544 13.9731C23.2226 13.6051 24.2663 13.4767 25.295 13.6004C25.8857 13.64 26.4652 13.7806 27.0087 14.0146C28.2969 14.5459 29.1962 15.735 29.3567 17.1194C29.4001 17.4157 29.4123 17.7168 29.4388 18.015ZM26.2302 18.015C26.2038 17.6139 26.1905 17.21 26.1462 16.8108C26.1132 16.3607 25.9914 15.9228 25.7876 15.5198C25.562 15.0716 25.0959 14.7951 24.5948 14.813C24.0842 14.7875 23.6048 15.0622 23.3689 15.5161C23.2028 15.8322 23.0952 16.1748 23.0499 16.5287C22.9178 17.4006 22.9018 18.2858 23.0027 19.1616C23.0339 19.5636 23.1301 19.959 23.2877 20.3299C23.5916 21.0405 24.4155 21.3708 25.1261 21.0669C25.4384 20.9329 25.6913 20.6904 25.8385 20.3846C25.9254 20.1978 25.9933 20.0034 26.0396 19.8023C26.167 19.2144 26.2302 18.6161 26.2302 18.015Z" fill="#919DE3"></path><path d="M17.1857 16.6537C17.1301 16.4999 17.0876 16.3763 17.0423 16.2536C16.7347 15.4269 16.1156 15.006 15.2606 14.9145C14.935 14.8645 14.6019 14.8824 14.2839 14.9673C14.0753 15.0277 13.8875 15.1428 13.7394 15.3023C13.4345 15.6392 13.4676 16.0186 13.8545 16.2545C14.08 16.3876 14.3235 16.4886 14.5764 16.5546C15.1087 16.7009 15.6532 16.8066 16.1873 16.95C16.8083 17.1001 17.4009 17.3473 17.9445 17.6833C18.5286 18.0466 18.9033 18.6685 18.9505 19.3546C19.0496 20.051 18.8542 20.7569 18.4107 21.3033C18.0738 21.6987 17.6359 21.995 17.1433 22.1602C16.4846 22.382 15.7872 22.4707 15.0936 22.4206C14.2773 22.3763 13.478 22.1696 12.7419 21.8129C12.7098 21.7978 12.6739 21.7884 12.6192 21.7695L12.3059 22.2102H11.1999V19.1517C11.3905 19.1224 11.5849 19.1149 11.7774 19.1281C11.9643 19.1234 12.1511 19.1271 12.3616 19.1271C12.4003 19.2281 12.4342 19.3225 12.4729 19.415C12.8579 20.3322 13.5044 20.9466 14.5019 21.1382C14.8331 21.2146 15.1776 21.2071 15.505 21.1165C15.6843 21.0636 15.8514 20.9787 15.9995 20.8645C16.2855 20.6606 16.3525 20.2634 16.1496 19.9774C16.108 19.9189 16.0571 19.8679 15.9986 19.8264C15.7579 19.649 15.4909 19.5093 15.2078 19.4131C14.6595 19.2225 14.0942 19.0828 13.5412 18.9063C13.1552 18.7902 12.7758 18.6534 12.405 18.4967C11.7 18.1834 11.1838 17.6738 11.0272 16.8991C10.7771 15.6619 11.2971 14.5861 12.4314 13.9878C12.9174 13.7396 13.4525 13.6008 13.997 13.5791C15.0303 13.5027 16.0675 13.6905 17.0083 14.1246C17.0423 14.1406 17.0782 14.152 17.1395 14.1756L17.3688 13.7924H18.5333V16.6471C18.3172 16.649 18.0964 16.6528 17.8765 16.6537C17.65 16.6547 17.4254 16.6537 17.1857 16.6537Z" fill="#919DE3"></path><path d="M10.2112 21.0125V22.1629H5.29175V21.0125C5.44368 21.0125 5.59184 21.0153 5.73812 21.0116C5.84098 21.0116 5.94384 21.0031 6.04576 20.9861C6.20147 20.971 6.32604 20.8483 6.34397 20.6926C6.36662 20.5727 6.38172 20.4519 6.38738 20.3311C6.39021 18.774 6.39021 17.216 6.38738 15.6589C6.38644 15.1078 6.25526 14.9823 5.70414 14.9728C5.57391 14.9709 5.44274 14.9728 5.29175 14.9728V13.8281H10.1773C10.2414 14.1999 10.2471 14.5803 10.1933 14.954C10.1254 14.9606 10.0537 14.9691 9.98099 14.9738C9.90832 14.9785 9.83094 14.9738 9.75544 14.9757C9.25339 14.9936 9.13449 15.1012 9.13449 15.5966C9.12977 17.1915 9.12977 18.7863 9.13449 20.3812C9.13638 20.8927 9.25623 21.0031 9.77054 21.0125C9.91021 21.0144 10.0489 21.0125 10.2112 21.0125Z" fill="#919DE3"></path><path d="M41.8946 24.0944L41.9018 22.7552L46.4162 18.7088C46.781 18.3872 47.0282 18.08 47.1578 17.7872C47.2922 17.4944 47.3594 17.2016 47.3594 16.9088C47.3594 16.5392 47.2778 16.208 47.1146 15.9152C46.9514 15.6176 46.7258 15.3824 46.4378 15.2096C46.1498 15.0368 45.8186 14.9504 45.4442 14.9504C45.0602 14.9504 44.717 15.0416 44.4146 15.224C44.117 15.4016 43.8842 15.6392 43.7162 15.9368C43.5482 16.2344 43.4666 16.556 43.4714 16.9016H41.9306C41.9306 16.2296 42.0818 15.6416 42.3842 15.1376C42.6914 14.6288 43.1114 14.2328 43.6442 13.9496C44.177 13.6616 44.7866 13.5176 45.473 13.5176C46.1258 13.5176 46.7114 13.6664 47.2298 13.964C47.7482 14.2568 48.1562 14.66 48.4538 15.1736C48.7562 15.6872 48.9074 16.2728 48.9074 16.9304C48.9074 17.4056 48.845 17.8088 48.7202 18.14C48.5954 18.4712 48.4082 18.7784 48.1586 19.0616C47.909 19.3448 47.597 19.652 47.2226 19.9832L43.7378 23.0936L43.5722 22.6616H48.9074V24.0944H41.8946ZM50.8861 24.1016L54.5293 15.1664H49.9141V13.7336H56.1493V15.1664L52.5133 24.1016H50.8861ZM61.21 24.3176C60.5044 24.3176 59.8804 24.164 59.338 23.8568C58.7956 23.5448 58.3684 23.1176 58.0564 22.5752C57.7492 22.0328 57.5956 21.4088 57.5956 20.7032V17.132C57.5956 16.4264 57.7492 15.8024 58.0564 15.26C58.3684 14.7176 58.7956 14.2928 59.338 13.9856C59.8804 13.6736 60.5044 13.5176 61.21 13.5176C61.9156 13.5176 62.5396 13.6736 63.082 13.9856C63.6244 14.2928 64.0492 14.7176 64.3564 15.26C64.6684 15.8024 64.8244 16.4264 64.8244 17.132V20.7032C64.8244 21.4088 64.6684 22.0328 64.3564 22.5752C64.0492 23.1176 63.6244 23.5448 63.082 23.8568C62.5396 24.164 61.9156 24.3176 61.21 24.3176ZM61.21 22.8776C61.594 22.8776 61.942 22.7864 62.254 22.604C62.5708 22.4168 62.8228 22.1672 63.01 21.8552C63.1972 21.5384 63.2908 21.1856 63.2908 20.7968V17.024C63.2908 16.64 63.1972 16.292 63.01 15.98C62.8228 15.6632 62.5708 15.4136 62.254 15.2312C61.942 15.044 61.594 14.9504 61.21 14.9504C60.826 14.9504 60.4756 15.044 60.1588 15.2312C59.8468 15.4136 59.5972 15.6632 59.41 15.98C59.2228 16.292 59.1292 16.64 59.1292 17.024V20.7968C59.1292 21.1856 59.2228 21.5384 59.41 21.8552C59.5972 22.1672 59.8468 22.4168 60.1588 22.604C60.4756 22.7864 60.826 22.8776 61.21 22.8776ZM70.1611 24.3176C69.4555 24.3176 68.8315 24.164 68.2891 23.8568C67.7467 23.5448 67.3195 23.1176 67.0075 22.5752C66.7003 22.0328 66.5467 21.4088 66.5467 20.7032V17.132C66.5467 16.4264 66.7003 15.8024 67.0075 15.26C67.3195 14.7176 67.7467 14.2928 68.2891 13.9856C68.8315 13.6736 69.4555 13.5176 70.1611 13.5176C70.8667 13.5176 71.4907 13.6736 72.0331 13.9856C72.5755 14.2928 73.0003 14.7176 73.3075 15.26C73.6195 15.8024 73.7755 16.4264 73.7755 17.132V20.7032C73.7755 21.4088 73.6195 22.0328 73.3075 22.5752C73.0003 23.1176 72.5755 23.5448 72.0331 23.8568C71.4907 24.164 70.8667 24.3176 70.1611 24.3176ZM70.1611 22.8776C70.5451 22.8776 70.8931 22.7864 71.2051 22.604C71.5219 22.4168 71.7739 22.1672 71.9611 21.8552C72.1483 21.5384 72.2419 21.1856 72.2419 20.7968V17.024C72.2419 16.64 72.1483 16.292 71.9611 15.98C71.7739 15.6632 71.5219 15.4136 71.2051 15.2312C70.8931 15.044 70.5451 14.9504 70.1611 14.9504C69.7771 14.9504 69.4267 15.044 69.1099 15.2312C68.7979 15.4136 68.5483 15.6632 68.3611 15.98C68.1739 16.292 68.0803 16.64 68.0803 17.024V20.7968C68.0803 21.1856 68.1739 21.5384 68.3611 21.8552C68.5483 22.1672 68.7979 22.4168 69.1099 22.604C69.4267 22.7864 69.7771 22.8776 70.1611 22.8776ZM77.3049 24.1016V15.3896L75.3537 16.5776V14.9L77.3049 13.7336H78.8385V24.1016H77.3049Z" fill="#919DE3"></path></g></svg>