<svg xmlns="http://www.w3.org/2000/svg" width="37" height="36" viewBox="0 0 37 36" fill="none"><g opacity="0.6" clip-path="url(#clip0_2080_384)"><path d="M35.5751 9.49961L31.3699 5.30387L27.9224 1.85635L27.0984 1.03236C26.8805 0.79558 26.6343 0.587214 26.3502 0.426204C25.8766 0.142068 25.3367 0 24.7779 0H24.5127C24.4464 0 24.3801 0 24.3139 0.00947119H15.4772C13.7535 0.00947119 12.3517 1.41121 12.3517 3.13496V6.44988L2.07549 16.7261C1.17573 17.6164 0.683228 18.8098 0.683228 20.0789C0.683228 21.3481 1.17573 22.5414 2.07549 23.4412L13.242 34.6077C14.1418 35.5075 15.3352 36 16.6043 36C17.8734 36 19.0668 35.5075 19.9666 34.6077L31.1331 23.4412C31.1899 23.3844 31.2373 23.3275 31.2846 23.2802L31.3036 23.2612C32.0992 22.513 32.5348 21.5091 32.5348 20.4388V17.8911L35.594 14.8319C37.0431 13.3639 37.0431 10.9771 35.5751 9.49961ZM31.5025 17.4743V20.4388C31.5025 21.2439 31.171 21.9921 30.5743 22.5414L30.5554 22.5604C30.5364 22.5793 30.527 22.5888 30.5175 22.6077C30.4796 22.6456 30.4512 22.6835 30.4133 22.7214L28.879 24.2463L28.8411 24.2841H4.36752L4.32964 24.2463L2.80477 22.7214C2.10391 22.0205 1.70612 21.0734 1.70612 20.0789C1.70612 19.0845 2.09443 18.1468 2.80477 17.4365L13.3652 6.86661V3.13496C13.3652 1.97001 14.3123 1.02289 15.4772 1.02289H24.3517C24.418 1.02289 24.4654 1.01342 24.5127 1.01342H24.7779C25.1473 1.01342 25.5167 1.1176 25.8387 1.30702C26.0376 1.42068 26.2081 1.56275 26.3596 1.72376L34.8553 10.2194C35.3762 10.7403 35.6603 11.4317 35.6603 12.1705C35.6603 12.9092 35.3762 13.6006 34.8553 14.1215L31.5025 17.4743ZM10.7511 27.8642C10.6375 27.8642 10.5238 27.8548 10.4196 27.8264C10.3154 27.8074 10.2207 27.7695 10.1544 27.7316V27.2865C10.2302 27.3339 10.3154 27.3623 10.4196 27.3907C10.5143 27.4191 10.609 27.4286 10.6848 27.4286C10.8648 27.4286 10.95 27.3717 10.95 27.2676C10.95 27.2202 10.9216 27.1728 10.8742 27.1444C10.8269 27.116 10.7322 27.0687 10.5901 27.0213C10.448 26.974 10.3438 26.8982 10.2586 26.8129C10.1828 26.7182 10.1449 26.614 10.1449 26.4909C10.1449 26.3678 10.1734 26.2541 10.2397 26.1594C10.306 26.0647 10.3912 25.9984 10.5143 25.9511C10.628 25.9037 10.77 25.8753 10.9311 25.8753C11.1015 25.8753 11.2531 25.9037 11.3667 25.97V26.3962C11.3099 26.3678 11.2436 26.3394 11.1678 26.3204C11.0921 26.3015 11.0163 26.292 10.95 26.292C10.7795 26.292 10.6943 26.3394 10.6943 26.4436C10.6943 26.472 10.7037 26.5004 10.7227 26.5193C10.7416 26.5383 10.7795 26.5667 10.8269 26.5856C10.8742 26.6046 10.95 26.633 11.0447 26.6614C11.3573 26.7656 11.5088 26.955 11.5088 27.2297C11.5088 27.4191 11.4425 27.5706 11.3099 27.6843C11.1584 27.8074 10.9784 27.8642 10.7511 27.8642ZM12.8348 27.8264H12.3044V26.3583H11.7835V25.9132H13.3557V26.3583H12.8348V27.8264ZM13.4409 27.8264C13.5167 27.5138 13.6114 27.1918 13.7251 26.8792C13.8387 26.5572 13.9618 26.2352 14.1039 25.9132H14.6911C14.8332 26.2257 14.9563 26.5478 15.07 26.8603C15.1836 27.1823 15.2783 27.5043 15.3636 27.8264H14.8237C14.7953 27.7032 14.7669 27.5896 14.7385 27.4759H14.066C14.0376 27.5896 14.0092 27.7127 13.9808 27.8264H13.4409ZM14.1607 27.0876H14.6248C14.5585 26.8414 14.4733 26.6046 14.388 26.3678C14.3407 26.4909 14.3028 26.6046 14.2649 26.7277C14.227 26.8508 14.1986 26.974 14.1607 27.0876ZM15.7614 27.8264V25.9132H16.4054C16.6611 25.9132 16.8695 25.97 17.0116 26.0837C17.1536 26.1973 17.2294 26.3489 17.2294 26.5477C17.2294 26.6709 17.201 26.7751 17.1347 26.8603C17.0779 26.955 16.9831 27.0213 16.879 27.0781C16.9547 27.1823 17.0305 27.296 17.1063 27.4191C17.182 27.5422 17.2578 27.6748 17.3431 27.8358H16.7558C16.699 27.7127 16.6422 27.5991 16.5759 27.4854C16.5096 27.3717 16.4528 27.277 16.3865 27.1728H16.2444V27.8264H15.7614ZM16.2633 26.7845H16.4149C16.5096 26.7845 16.5854 26.7656 16.6327 26.7182C16.6801 26.6709 16.7085 26.614 16.7085 26.5383C16.7085 26.4625 16.6801 26.4057 16.6327 26.3678C16.5854 26.3299 16.5096 26.311 16.4149 26.311H16.2633V26.7845ZM18.6311 27.8264H18.1007V26.3583H17.5798V25.9132H19.1521V26.3583H18.6311V27.8264ZM20.3928 27.8642C20.1371 27.8642 19.9382 27.7885 19.7961 27.6464C19.654 27.5043 19.5783 27.296 19.5783 27.0403V25.9132H20.1086V27.0403C20.1086 27.1634 20.1371 27.2581 20.1844 27.3149C20.2318 27.3717 20.3075 27.4096 20.3928 27.4096C20.4875 27.4096 20.5538 27.3812 20.6011 27.3149C20.6485 27.2486 20.6769 27.1539 20.6769 27.0403V25.9132H21.2073V27.0118C21.2073 27.1918 21.1789 27.3433 21.1126 27.4665C21.0463 27.5991 20.9516 27.6938 20.8285 27.7601C20.7053 27.8264 20.5633 27.8642 20.3928 27.8642ZM21.6903 27.8264V25.9132H22.3438C22.5996 25.9132 22.7985 25.97 22.9405 26.0837C23.0826 26.1973 23.1584 26.3583 23.1584 26.5572C23.1584 26.7656 23.0826 26.9266 22.9405 27.0403C22.789 27.1539 22.5901 27.2202 22.3249 27.2202H22.2018V27.8264H21.6903ZM22.3628 26.311H22.2112V26.8129H22.3628C22.448 26.8129 22.5238 26.794 22.5712 26.7466C22.6185 26.6993 22.6469 26.6425 22.6469 26.5572C22.6469 26.4815 22.6185 26.4246 22.5712 26.3773C22.5143 26.3299 22.448 26.311 22.3628 26.311ZM13.5735 31.0845V30.895C13.7535 30.7245 13.8955 30.573 14.0092 30.4499C14.1228 30.3268 14.2081 30.2226 14.2744 30.1373C14.3407 30.0521 14.388 29.9763 14.407 29.9006C14.4354 29.8343 14.4449 29.768 14.4449 29.6922C14.4449 29.588 14.407 29.5028 14.3407 29.4365C14.2744 29.3702 14.1797 29.3417 14.0755 29.3417C13.9145 29.3417 13.7629 29.3986 13.6303 29.5122V29.2849C13.6872 29.2376 13.7629 29.1997 13.8482 29.1713C13.9334 29.1429 14.0187 29.1334 14.1134 29.1334C14.227 29.1334 14.3312 29.1523 14.4165 29.1997C14.5017 29.247 14.5775 29.3039 14.6248 29.3891C14.6722 29.4743 14.7006 29.5691 14.7006 29.6732C14.7006 29.749 14.6911 29.8248 14.6627 29.9006C14.6343 29.9763 14.5964 30.0616 14.5301 30.1468C14.4733 30.232 14.388 30.3362 14.2839 30.4499C14.1797 30.5635 14.0471 30.7056 13.8861 30.8571H14.7385V31.075H13.5735V31.0845ZM15.8182 31.1223C15.6004 31.1223 15.4393 31.0371 15.3162 30.8571C15.2026 30.6867 15.1363 30.4404 15.1363 30.1279C15.1363 29.8153 15.1931 29.5691 15.3162 29.3891C15.4299 29.2186 15.6004 29.1239 15.8087 29.1239C16.0266 29.1239 16.1876 29.2092 16.3107 29.3796C16.4243 29.5501 16.4906 29.7964 16.4906 30.1089C16.4906 30.4215 16.4338 30.6677 16.3107 30.8382C16.197 31.0371 16.0266 31.1223 15.8182 31.1223ZM15.8182 30.9045C15.9508 30.9045 16.055 30.8382 16.1213 30.6961C16.197 30.5635 16.2349 30.3646 16.2349 30.1184C16.2349 29.8721 16.197 29.6827 16.1307 29.5501C16.0644 29.4175 15.9508 29.3417 15.8182 29.3417C15.6856 29.3417 15.5814 29.408 15.5151 29.5501C15.4393 29.6827 15.4015 29.8816 15.4015 30.1279C15.4015 30.3741 15.4393 30.5635 15.5056 30.6961C15.5719 30.8382 15.6761 30.9045 15.8182 30.9045ZM16.8316 31.0845V30.895C17.0116 30.7245 17.1536 30.573 17.2673 30.4499C17.3809 30.3268 17.4662 30.2226 17.5325 30.1373C17.5988 30.0521 17.6461 29.9763 17.6651 29.9006C17.6935 29.8343 17.703 29.768 17.703 29.6922C17.703 29.588 17.6651 29.5028 17.5988 29.4365C17.5325 29.3702 17.4378 29.3417 17.3336 29.3417C17.1726 29.3417 17.021 29.3986 16.8884 29.5122V29.2849C16.9453 29.2376 17.021 29.1997 17.1063 29.1713C17.1915 29.1429 17.2768 29.1334 17.3715 29.1334C17.4851 29.1334 17.5893 29.1523 17.6745 29.1997C17.7598 29.247 17.8356 29.3039 17.8829 29.3891C17.9303 29.4743 17.9587 29.5691 17.9587 29.6732C17.9587 29.749 17.9492 29.8248 17.9208 29.9006C17.8924 29.9763 17.8545 30.0616 17.7882 30.1468C17.7314 30.232 17.6461 30.3362 17.5419 30.4499C17.4378 30.5635 17.3052 30.7056 17.1442 30.8571H17.9966V31.075H16.8316V31.0845ZM19.1994 31.0845V30.6393H18.3281V30.4309C18.4322 30.251 18.5459 30.0521 18.688 29.8532C18.83 29.6543 18.991 29.4175 19.1805 29.1713H19.4362V30.4309H19.6824V30.6393H19.4362V31.0845H19.1994ZM19.1994 30.4309V29.4554C19.0573 29.6448 18.9342 29.8153 18.83 29.9763C18.7258 30.1373 18.6311 30.2889 18.5554 30.4309H19.1994ZM29.2483 14.7845H29.3052V14.8792C29.3052 14.8887 29.3052 14.9077 29.2957 14.9266V14.9361C29.2673 14.9929 29.2105 15.0497 29.1252 15.0497C29.0494 15.0497 29.0021 15.0118 29.0021 14.9361C29.0021 14.8508 29.0684 14.8129 29.1726 14.794C29.1915 14.7845 29.2199 14.7845 29.2483 14.7845ZM30.2807 12.2936H27.9603C27.6382 12.2936 27.3825 12.5588 27.3825 12.8713V15.2013C27.3825 15.5233 27.6382 15.779 27.9603 15.779H30.2807C30.6027 15.779 30.8584 15.5233 30.8584 15.2013V12.8713C30.8584 12.5493 30.6027 12.2936 30.2807 12.2936ZM27.9318 15.1918H27.6572V14.0268H27.9318V15.1918ZM30.2049 14.0363H30.4607L30.2333 14.2731H30.0439L30.2049 14.0363ZM28.6232 15.1918C28.5854 15.2013 28.5569 15.2202 28.4812 15.2202C28.3865 15.2202 28.3107 15.1823 28.2728 15.135C28.2255 15.0781 28.197 14.9929 28.197 14.8792V14.5288H28.0739V14.3299H28.197V14.0363H28.4622V14.3299H28.6327V14.5288H28.4622V14.8414C28.4622 14.9455 28.4812 15.0024 28.5759 15.0024C28.6043 15.0024 28.6232 15.0024 28.6327 14.9929V15.1918H28.6232ZM29.5514 15.1918H29.3336L29.3052 15.0971C29.2483 15.1634 29.1442 15.2107 29.0305 15.2107C28.8411 15.2107 28.7274 15.0781 28.7274 14.9455C28.7274 14.7182 28.9453 14.6046 29.2957 14.6046V14.5951C29.2957 14.5572 29.2578 14.472 29.1063 14.472C29.0116 14.472 28.9074 14.5099 28.8411 14.5383L28.7937 14.3678C28.86 14.3299 28.9831 14.2826 29.1536 14.2826C29.4567 14.2826 29.5609 14.453 29.5609 14.6614V15.1918H29.5514ZM30.5743 15.1918H30.3565L30.3186 15.0687C30.3091 15.0781 30.2996 15.0971 30.2807 15.116C30.2618 15.135 30.2428 15.1444 30.2239 15.1634C30.2049 15.1823 30.1765 15.1918 30.1386 15.2013C30.1102 15.2107 30.0723 15.2202 30.025 15.2202C29.9776 15.2202 29.9303 15.2107 29.8924 15.2013C29.8545 15.1918 29.8166 15.1634 29.7882 15.135C29.7598 15.1066 29.7408 15.0687 29.7219 15.0213C29.703 14.974 29.6935 14.9171 29.6935 14.8508V14.3394H29.9587V14.8035C29.9587 14.9361 30.006 15.0213 30.1197 15.0213C30.2049 15.0213 30.2618 14.9645 30.2807 14.9077C30.2902 14.8887 30.2902 14.8698 30.2902 14.8508V14.3394H30.5554V15.1918H30.5743ZM26.8048 19.3023C26.8048 20.1073 26.1513 20.7514 25.3557 20.7514H23.6414C22.8363 20.7514 22.1923 20.0979 22.1923 19.3023V17.4365C22.1923 16.6314 22.8458 15.9874 23.6414 15.9874H25.3557C26.1607 15.9874 26.8048 16.6409 26.8048 17.4365V19.3023ZM25.2326 17.086H23.774C23.5562 17.086 23.3762 17.266 23.3762 17.4838V19.2549C23.3762 19.4728 23.5562 19.6527 23.774 19.6527H25.2326C25.4504 19.6527 25.6303 19.4728 25.6303 19.2549V17.4838C25.6303 17.266 25.4504 17.086 25.2326 17.086ZM9.86081 19.5485C9.11259 19.6338 8.49696 19.6906 7.44566 19.5959C7.09522 19.5675 7.05734 19.2928 7.05734 19.2455V17.4459C7.05734 17.1239 7.34148 17.1239 7.49301 17.105C8.04234 17.0576 9.86081 17.1523 9.86081 17.1523V16.1389C9.22624 16.0253 8.05181 15.94 7.19941 16.0063C6.83003 16.0347 6.56484 16.1484 6.37541 16.2999C6.17652 16.4609 6.05339 16.6598 5.98709 16.8587C5.88291 17.1713 5.88291 18.0521 5.88291 18.1657V18.7814C5.88291 19.3212 5.91133 19.6906 6.03445 19.9747C6.347 20.6756 6.9721 20.704 7.19941 20.7324C7.90975 20.8272 9.87028 20.6188 9.87028 20.6188V19.5485H9.86081ZM14.2649 15.9874V19.2549C14.2649 19.4728 14.085 19.6527 13.8671 19.6527H12.4275C12.2097 19.6527 12.0297 19.4728 12.0297 19.2549V15.9874H10.8458V19.4633C10.8458 20.1831 11.4236 20.7609 12.1434 20.7609H14.0187C14.5017 20.7609 14.6343 20.6377 14.8237 20.4483L14.9753 20.2968L15.1268 20.1452C15.3162 19.9558 15.4393 19.8232 15.4393 19.3402V15.9968H14.2649V15.9874ZM20.2412 17.4838V19.2549C20.2412 19.4728 20.0613 19.6527 19.8434 19.6527H17.9966C17.7787 19.6527 17.5988 19.4728 17.5988 19.2549V17.4838C17.5988 17.266 17.7787 17.086 17.9966 17.086H19.8434C20.0613 17.086 20.2412 17.266 20.2412 17.4838ZM20.0708 15.9874H18.5175C17.9492 15.9874 18.0439 15.9684 17.5988 16.3189V14.3583H16.4149V19.3307C16.4149 19.8137 16.538 19.9463 16.7274 20.1358L16.879 20.2873L17.0305 20.4388C17.2199 20.6283 17.3525 20.7514 17.8356 20.7514H20.0708C20.819 20.7514 21.4157 20.1452 21.4157 19.4065V17.3323C21.4157 16.5841 20.819 15.9874 20.0708 15.9874Z" fill="#919DE3"></path></g><defs><clipPath id="clip0_2080_384"><rect width="35.9953" height="36" fill="white" transform="translate(0.681274)"></rect></clipPath></defs></svg>