<svg xmlns="http://www.w3.org/2000/svg" width="109" height="36" viewBox="0 0 109 36" fill="none"><g opacity="0.6"><path d="M97.363 5.72209H97.2337H97.1045H96.9753H96.846H96.7168V5.59285H96.5875H96.4583V5.46361H96.3291V5.33437V5.20514H96.1998V5.0759V4.94666V4.81742V4.68818L96.3291 4.55894V4.42971L96.4583 4.30047L96.5875 4.17123L96.7168 4.04199H96.846H96.9753H97.1045H97.2337H97.363H97.4922V4.17123H97.6214H97.7507V4.30047V4.42971H97.8799V4.55894V4.68818V4.81742V4.94666V5.0759V5.20514V5.33437L97.7507 5.46361L97.6214 5.59285H97.4922L97.363 5.72209Z" fill="#919DE3"></path><path d="M97.7506 15.4153H97.6214H97.4921H97.3629H97.2336H97.1044H96.9752H96.8459H96.7167H96.5875H96.4582V15.286H96.329V15.1568V15.0276V14.8983V14.7691V14.6399V14.5106V14.3814V14.2521V14.1229V13.9937V13.8644V13.7352V13.606V13.4767V13.3475V13.2182V13.089V12.9598V12.8305V12.7013V12.572V12.4428V12.3136V12.1843V12.0551V11.9259V11.7966V11.6674V11.5381V11.4089V11.2797V11.1504V11.0212V10.8919V10.7627V10.6335V10.5042V10.375V10.2458V10.1165V9.98728V9.85804V9.72881V9.59957V9.47033V9.34109V9.21185V9.08262V8.95338V8.82414V8.6949V8.56566V8.43642V8.30719V8.17795V8.04871V7.91947V7.79023V7.661V7.53176V7.40252V7.27328L96.4582 7.14404H96.5875H96.7167H96.8459H96.9752H97.1044H97.2336H97.3629H97.4921H97.6214H97.7506V7.27328V7.40252V7.53176V7.661V7.79023V7.91947V8.04871V8.17795V8.30719V8.43642V8.56566V8.6949V8.82414V8.95338V9.08262V9.21185V9.34109V9.47033V9.59957V9.72881V9.85804V9.98728V10.1165V10.2458V10.375V10.5042V10.6335V10.7627V10.8919V11.0212V11.1504V11.2797V11.4089V11.5381V11.6674V11.7966V11.9259V12.0551V12.1843V12.3136V12.4428V12.572V12.7013V12.8305V12.9598V13.089V13.2182V13.3475V13.4767V13.606V13.7352V13.8644V13.9937V14.1229V14.2521V14.3814V14.5106V14.6399V14.7691V14.8983V15.0276V15.1568V15.286V15.4153Z" fill="#919DE3"></path><path fill-rule="evenodd" clip-rule="evenodd" d="M91.8055 15.4149H91.9348L92.064 15.2857H92.1933H92.3225L92.4517 15.1565H92.581H92.7102L92.8395 15.0272L92.9687 14.898H93.0979L93.2272 14.7688L93.3564 14.6395H93.4856L93.6149 14.5103L93.7441 14.381L93.8734 14.2518L94.0026 14.1226V13.9933L94.1318 13.8641L94.2611 13.7349V13.6056L94.3903 13.4764V13.3471L94.5195 13.2179V13.0887L94.6488 12.9594V12.8302V12.7009L94.778 12.5717V12.4425V12.3132V12.184V12.0548V11.9255L94.9073 11.7963V11.667V11.5378V11.4086V11.2793V11.1501V11.0209V10.8916V10.7624V10.6331H94.778V10.5039V10.3747V10.2454V10.1162V9.98695V9.85771H94.6488V9.72847V9.59923V9.46999H94.5195V9.34076V9.21152H94.3903V9.08228V8.95304V8.8238H94.2611V8.69457H94.1318V8.56533V8.43609H94.0026V8.30685H93.8734V8.17761H93.7441V8.04837H93.6149V7.91914H93.4856V7.7899H93.3564V7.66066H93.2272H93.0979V7.53142H92.9687H92.8395V7.40218H92.7102H92.581V7.27295H92.4517H92.3225V7.14371H92.1933H92.064H91.9348H91.8055V7.01447H91.6763H91.5471H91.4178H91.2886H91.1594H91.0301H90.9009H90.7716H90.6424H90.5132H90.3839H90.2547L90.1255 7.14371H89.9962H89.867H89.7377L89.6085 7.27295H89.4793L89.35 7.40218H89.2208L89.0915 7.53142H88.9623L88.8331 7.66066L88.7038 7.7899L88.5746 7.91914L88.4454 8.04837L88.3161 8.17761L88.1869 8.30685H88.0576V8.17761V8.04837V7.91914V7.7899V7.66066V7.53142V7.40218V7.27295V7.14371V7.01447V6.88523V6.75599V6.62675V6.49752V6.36828V6.23904V6.1098V5.98056V5.85133V5.72209V5.59285V5.46361V5.33437V5.20514V5.0759V4.94666V4.81742V4.68818V4.55894V4.42971V4.30047V4.17123V4.04199H87.9284H87.7992H87.6699H87.5407H87.4114H87.2822H87.153H87.0237H86.8945L86.7653 4.17123V4.30047V4.42971V4.55894V4.68818V4.81742V4.94666V5.0759V5.20514V5.33437V5.46361V5.59285V5.72209V5.85133V5.98056V6.1098V6.23904V6.36828V6.49752V6.62675V6.75599V6.88523V7.01447V7.14371V7.27295V7.40218V7.53142V7.66066V7.7899V7.91914V8.04837V8.17761V8.30685V8.43609V8.56533V8.69457V8.8238V8.95304V9.08228V9.21152V9.34076V9.46999V9.59923V9.72847V9.85771V9.98695V10.1162V10.2454V10.3747V10.5039V10.6331V10.7624V10.8916V11.0209V11.1501V11.2793V11.4086V11.5378V11.667V11.7963V11.9255V12.0548V12.184V12.3132V12.4425V12.5717V12.7009V12.8302V12.9594V13.0887V13.2179V13.3471V13.4764V13.6056V13.7349V13.8641V13.9933V14.1226V14.2518V14.381V14.5103V14.6395V14.7688V14.898V15.0272V15.1565V15.2857V15.4149H86.8945H87.0237H87.153H87.2822H87.4114H87.5407H87.6699H87.7992H87.9284V15.2857V15.1565V15.0272V14.898V14.7688L88.0576 14.6395V14.5103V14.381L88.1869 14.2518V14.381H88.3161V14.5103H88.4454V14.6395H88.5746V14.7688H88.7038V14.898H88.8331H88.9623V15.0272H89.0915V15.1565H89.2208H89.35H89.4793V15.2857H89.6085H89.7377H89.867V15.4149H89.9962H90.1255H90.2547H90.3839H90.5132H90.6424H90.7716H90.9009H91.0301H91.1594H91.2886H91.4178H91.5471H91.6763H91.8055ZM91.5469 14.123L91.4176 14.2522H91.2884H91.1592H91.0299H90.9007H90.7714H90.6422H90.513H90.3837H90.2545H90.1253V14.123H89.996H89.8668H89.7375V13.9937H89.6083H89.4791V13.8645H89.3498H89.2206V13.7353H89.0913V13.606H88.9621V13.4768H88.8329V13.3476H88.7036V13.2183H88.5744V13.0891V12.9598H88.4452V12.8306V12.7014H88.3159V12.5721V12.4429H88.1867V12.3137V12.1844V12.0552V11.9259H88.0574V11.7967V11.6675V11.5382V11.409V11.2797V11.1505V11.0213V10.892V10.7628V10.6336L88.1867 10.5043V10.3751V10.2458V10.1166L88.3159 9.98737V9.85813L88.4452 9.72889V9.59965L88.5744 9.47041V9.34117L88.7036 9.21194L88.8329 9.0827L88.9621 8.95346L89.0913 8.82422L89.2206 8.69498L89.3498 8.56575H89.4791L89.6083 8.43651H89.7375L89.8668 8.30727H89.996H90.1253H90.2545L90.3837 8.17803H90.513H90.6422H90.7714H90.9007H91.0299H91.1592H91.2884V8.30727H91.4176H91.5469H91.6761H91.8053V8.43651H91.9346H92.0638V8.56575H92.1931H92.3223V8.69498H92.4515V8.82422H92.5808V8.95346H92.71V9.0827H92.8393V9.21194H92.9685V9.34117V9.47041H93.0977V9.59965V9.72889H93.227V9.85813V9.98737H93.3562V10.1166V10.2458V10.3751V10.5043H93.4854V10.6336V10.7628V10.892V11.0213V11.1505V11.2797V11.409V11.5382V11.6675V11.7967V11.9259V12.0552L93.3562 12.1844V12.3137V12.4429L93.227 12.5721V12.7014V12.8306L93.0977 12.9598V13.0891L92.9685 13.2183L92.8393 13.3476L92.71 13.4768V13.606H92.5808L92.4515 13.7353L92.3223 13.8645H92.1931L92.0638 13.9937H91.9346L91.8053 14.123H91.6761H91.5469Z" fill="#919DE3"></path><path fill-rule="evenodd" clip-rule="evenodd" d="M107.056 15.4151H107.185L107.314 15.2859V15.1567V15.0274V14.8982V14.7689V14.6397V14.5105V14.3812V14.252V14.1227H107.185H107.056H106.927H106.797H106.668H106.539V13.9935H106.41V13.8643H106.28V13.735V13.6058V13.4766V13.3473V13.2181V13.0888V12.9596V12.8304V12.7011V12.5719V12.4426V12.3134V12.1842V12.0549V11.9257V11.7965V11.6672V11.538V11.4087V11.2795V11.1503V11.021V10.8918V10.7626V10.6333V10.5041V10.3748V10.2456V10.1164V9.98713V9.85789V9.72865V9.59941V9.47017V9.34093V9.2117V9.08246H106.151V8.95322V8.82398V8.69474H106.022V8.56551V8.43627H105.893V8.30703V8.17779H105.764V8.04855H105.634V7.91932H105.505V7.79008H105.376V7.66084H105.247V7.5316H105.117H104.988V7.40236H104.859H104.73V7.27312H104.6H104.471V7.14389H104.342H104.213H104.083H103.954V7.01465H103.825H103.696H103.566H103.437H103.308H103.179H103.05H102.92H102.791H102.662H102.533H102.403H102.274H102.145L102.016 7.14389H101.886H101.757H101.628L101.499 7.27312H101.369H101.24L101.111 7.40236H100.982L100.852 7.5316L100.723 7.66084H100.594L100.465 7.79008L100.336 7.91932L100.206 8.04855L100.077 8.17779L99.9478 8.30703V8.43627L99.8186 8.56551L99.6893 8.69474V8.82398V8.95322L99.5601 9.08246V9.2117V9.34093V9.47017L99.4308 9.59941H99.5601H99.6893H99.8186H99.9478H100.077H100.206H100.336H100.465H100.594H100.723H100.852V9.47017V9.34093L100.982 9.2117L101.111 9.08246V8.95322L101.24 8.82398L101.369 8.69474L101.499 8.56551H101.628L101.757 8.43627H101.886L102.016 8.30703H102.145H102.274H102.403L102.533 8.17779H102.662H102.791H102.92H103.05H103.179H103.308H103.437V8.30703H103.566H103.696H103.825H103.954V8.43627H104.083H104.213V8.56551H104.342V8.69474H104.471V8.82398H104.6V8.95322H104.73V9.08246H104.859V9.2117V9.34093V9.47017H104.988V9.59941V9.72865V9.85789V9.98713V10.1164V10.2456V10.3748L104.859 10.5041H104.73H104.6H104.471H104.342H104.213H104.083H103.954H103.825H103.696H103.566H103.437H103.308H103.179H103.05H102.92H102.791H102.662H102.533H102.403H102.274H102.145H102.016H101.886H101.757H101.628H101.499L101.369 10.6333H101.24H101.111H100.982L100.852 10.7626H100.723L100.594 10.8918H100.465L100.336 11.021H100.206L100.077 11.1503L99.9478 11.2795L99.8186 11.4087L99.6893 11.538L99.5601 11.6672V11.7965L99.4308 11.9257V12.0549L99.3016 12.1842V12.3134V12.4426V12.5719V12.7011L99.1724 12.8304V12.9596V13.0888V13.2181V13.3473H99.3016V13.4766V13.6058V13.735V13.8643H99.4308V13.9935V14.1227H99.5601V14.252V14.3812H99.6893V14.5105H99.8186V14.6397H99.9478V14.7689H100.077V14.8982H100.206V15.0274H100.336H100.465V15.1567H100.594H100.723V15.2859H100.852H100.982H101.111H101.24V15.4151H101.369H101.499H101.628H101.757H101.886H102.016H102.145H102.274H102.403H102.533H102.662H102.791H102.92H103.05H103.179H103.308L103.437 15.2859H103.566H103.696L103.825 15.1567H103.954L104.083 15.0274H104.213L104.342 14.8982L104.471 14.7689L104.6 14.6397L104.73 14.5105L104.859 14.3812L104.988 14.252V14.3812H105.117V14.5105V14.6397V14.7689H105.247V14.8982V15.0274H105.376V15.1567H105.505H105.634V15.2859H105.764H105.893H106.022H106.151V15.4151H106.28H106.41H106.539H106.668H106.797H106.927H107.056ZM102.791 14.2521L102.662 14.3814H102.533H102.403H102.274H102.145V14.2521H102.016H101.886H101.757H101.628H101.499V14.1229H101.369H101.24V13.9937H101.111V13.8644H100.982V13.7352H100.853V13.6059H100.723V13.4767V13.3475H100.594V13.2182V13.089V12.9597V12.8305V12.7013V12.572L100.723 12.4428V12.3136L100.853 12.1843L100.982 12.0551L101.111 11.9258L101.24 11.7966H101.369H101.499L101.628 11.6674H101.757H101.886H102.016H102.145L102.274 11.5381H102.403H102.533H102.662H102.791H102.92H103.05H103.179H103.308H103.437H103.567H103.696H103.825H103.954H104.083H104.213H104.342H104.471H104.6H104.73H104.859V11.6674H104.988V11.7966V11.9258V12.0551V12.1843V12.3136V12.4428L104.859 12.572V12.7013V12.8305V12.9597L104.73 13.089V13.2182L104.6 13.3475L104.471 13.4767V13.6059H104.342L104.213 13.7352L104.083 13.8644L103.954 13.9937H103.825L103.696 14.1229H103.567H103.437L103.308 14.2521H103.179H103.05H102.92H102.791Z" fill="#919DE3"></path><path d="M45.5386 15.4153H45.4093H45.2801H45.1509H45.0216H44.8924H44.7631H44.6339H44.5047H44.3754H44.2462H44.1169H43.9877H43.8585H43.7292H43.6H43.4708H43.3415H43.2123H43.083V15.286H42.9538H42.8246H42.6953H42.5661V15.1568H42.4369H42.3076H42.1784V15.0276H42.0491H41.9199V14.8983H41.7907H41.6614V14.7691H41.5322H41.4029V14.6399H41.2737V14.5106H41.1445H41.0152V14.3814H40.886V14.2521H40.7568V14.1229H40.6275V13.9937H40.4983V13.8644H40.369V13.7352H40.2398V13.6059H40.1106V13.4767V13.3475H39.9813V13.2182H39.8521V13.089V12.9598H39.7229V12.8305V12.7013H39.5936V12.572V12.4428H39.4644V12.3136V12.1843V12.0551H39.3351V11.9258V11.7966V11.6674H39.2059V11.5381V11.4089V11.2797V11.1504V11.0212H39.0767V10.8919V10.7627V10.6335V10.5042V10.375V10.2458V10.1165V9.98728V9.85804V9.7288V9.59956V9.47033V9.34109V9.21185V9.08261V8.95337V8.82413V8.6949V8.56566L39.2059 8.43642V8.30718V8.17794V8.04871V7.91947L39.3351 7.79023V7.66099V7.53175L39.4644 7.40252V7.27328V7.14404L39.5936 7.0148V6.88556L39.7229 6.75632V6.62709L39.8521 6.49785V6.36861L39.9813 6.23937L40.1106 6.11013V5.9809L40.2398 5.85166L40.369 5.72242L40.4983 5.59318L40.6275 5.46394L40.7568 5.33471L40.886 5.20547L41.0152 5.07623L41.1445 4.94699H41.2737L41.4029 4.81775L41.5322 4.68851H41.6614L41.7907 4.55928H41.9199L42.0491 4.43004H42.1784L42.3076 4.3008H42.4369L42.5661 4.17156H42.6953H42.8246H42.9538L43.083 4.04232H43.2123H43.3415H43.4708H43.6L43.7292 3.91309H43.8585H43.9877H44.1169H44.2462H44.3754H44.5047H44.6339H44.7631H44.8924H45.0216H45.1509H45.2801V4.04232H45.4093H45.5386H45.6678H45.797H45.9263V4.17156H46.0555H46.1848H46.314V4.3008H46.4432H46.5725H46.7017V4.43004H46.8309H46.9602V4.55928H47.0894H47.2187V4.68851H47.3479V4.81775H47.4771H47.6064V4.94699H47.7356V5.07623H47.8649V5.20547H47.9941V5.33471H48.1233V5.46394H48.2526V5.59318H48.3818V5.72242V5.85166H48.511V5.9809H48.6403V6.11013V6.23937H48.7695V6.36861V6.49785H48.8988V6.62709V6.75632H49.028V6.88556V7.0148V7.14404H49.1572V7.27328V7.40252V7.53175V7.66099V7.79023H49.028H48.8988H48.7695H48.6403H48.511H48.3818H48.2526H48.1233H47.9941H47.8649H47.7356V7.66099H47.6064V7.53175V7.40252V7.27328H47.4771V7.14404V7.0148H47.3479V6.88556V6.75632H47.2187V6.62709V6.49785H47.0894V6.36861H46.9602V6.23937H46.8309V6.11013H46.7017V5.9809H46.5725V5.85166H46.4432H46.314V5.72242H46.1848V5.59318H46.0555H45.9263V5.46394H45.797H45.6678H45.5386V5.33471H45.4093H45.2801H45.1509H45.0216V5.20547H44.8924H44.7631H44.6339H44.5047H44.3754H44.2462H44.1169H43.9877L43.8585 5.33471H43.7292H43.6H43.4708H43.3415L43.2123 5.46394H43.083H42.9538L42.8246 5.59318H42.6953L42.5661 5.72242H42.4369L42.3076 5.85166L42.1784 5.9809L42.0491 6.11013L41.9199 6.23937L41.7907 6.36861L41.6614 6.49785L41.5322 6.62709L41.4029 6.75632L41.2737 6.88556L41.1445 7.0148V7.14404L41.0152 7.27328V7.40252L40.886 7.53175V7.66099V7.79023L40.7568 7.91947V8.04871V8.17794L40.6275 8.30718V8.43642V8.56566V8.6949L40.4983 8.82413V8.95337V9.08261V9.21185V9.34109V9.47033V9.59956V9.7288V9.85804V9.98728V10.1165V10.2458V10.375V10.5042V10.6335H40.6275V10.7627V10.8919V11.0212V11.1504V11.2797H40.7568V11.4089V11.5381V11.6674H40.886V11.7966V11.9258H41.0152V12.0551V12.1843H41.1445V12.3136V12.4428H41.2737V12.572V12.7013H41.4029V12.8305H41.5322V12.9598H41.6614V13.089H41.7907V13.2182H41.9199V13.3475H42.0491V13.4767H42.1784V13.6059H42.3076H42.4369V13.7352H42.5661H42.6953V13.8644H42.8246H42.9538V13.9937H43.083H43.2123H43.3415H43.4708V14.1229H43.6H43.7292H43.8585H43.9877H44.1169H44.2462H44.3754H44.5047H44.6339H44.7631H44.8924H45.0216H45.1509H45.2801L45.4093 13.9937H45.5386H45.6678L45.797 13.8644H45.9263H46.0555L46.1848 13.7352L46.314 13.6059H46.4432L46.5725 13.4767L46.7017 13.3475H46.8309V13.2182L46.9602 13.089L47.0894 12.9598L47.2187 12.8305V12.7013L47.3479 12.572L47.4771 12.4428V12.3136L47.6064 12.1843V12.0551V11.9258L47.7356 11.7966L47.8649 11.6674H47.9941H48.1233H48.2526H48.3818H48.511H48.6403H48.7695H48.8988H49.028H49.1572V11.7966V11.9258V12.0551V12.1843L49.028 12.3136V12.4428V12.572L48.8988 12.7013V12.8305L48.7695 12.9598V13.089L48.6403 13.2182V13.3475L48.511 13.4767L48.3818 13.6059V13.7352L48.2526 13.8644L48.1233 13.9937L47.9941 14.1229L47.8649 14.2521L47.7356 14.3814L47.6064 14.5106H47.4771L47.3479 14.6399L47.2187 14.7691H47.0894L46.9602 14.8983H46.8309L46.7017 15.0276H46.5725L46.4432 15.1568H46.314H46.1848L46.0555 15.286H45.9263H45.797H45.6678L45.5386 15.4153Z" fill="#919DE3"></path><path d="M61.4348 15.4149H61.3056H61.1764H61.0471H60.9179H60.7886H60.6594H60.5302H60.4009H60.2717H60.1425V15.2857V15.1565V15.0272V14.898V14.7688V14.6395V14.5103V14.381V14.2518V14.1226V13.9933V13.8641V13.7349V13.6056V13.4764V13.3471V13.2179V13.0887V12.9594V12.8302V12.7009V12.5717V12.4425V12.3132V12.184V12.0548V11.9255V11.7963V11.667V11.5378V11.4086V11.2793V11.1501V11.0209V10.8916V10.7624V10.6331V10.5039V10.3747V10.2454V10.1162V9.98695V9.85771V9.72847V9.59923V9.46999V9.34076V9.21152V9.08228V8.95304V8.8238V8.69457V8.56533V8.43609V8.30685V8.17761V8.04837V7.91914V7.7899V7.66066V7.53142V7.40218V7.27295V7.14371V7.01447V6.88523V6.75599V6.62675V6.49752V6.36828V6.23904V6.1098V5.98056V5.85133V5.72209V5.59285V5.46361V5.33437V5.20514V5.0759V4.94666V4.81742V4.68818V4.55894V4.42971V4.30047V4.17123L60.2717 4.04199H60.4009H60.5302H60.6594H60.7886H60.9179H61.0471H61.1764H61.3056H61.4348V4.17123V4.30047V4.42971V4.55894V4.68818V4.81742V4.94666V5.0759V5.20514V5.33437V5.46361V5.59285V5.72209V5.85133V5.98056V6.1098V6.23904V6.36828V6.49752V6.62675V6.75599V6.88523V7.01447V7.14371V7.27295V7.40218V7.53142V7.66066V7.7899V7.91914V8.04837V8.17761V8.30685V8.43609V8.56533V8.69457V8.8238V8.95304V9.08228V9.21152V9.34076V9.46999V9.59923V9.72847V9.85771V9.98695V10.1162V10.2454V10.3747V10.5039V10.6331V10.7624V10.8916V11.0209V11.1501V11.2793V11.4086V11.5378V11.667V11.7963V11.9255V12.0548V12.184V12.3132V12.4425V12.5717V12.7009V12.8302V12.9594V13.0887V13.2179V13.3471V13.4764V13.6056V13.7349V13.8641V13.9933V14.1226V14.2518V14.381V14.5103V14.6395V14.7688V14.898V15.0272V15.1565V15.2857V15.4149Z" fill="#919DE3"></path><path d="M84.956 15.4151H84.8267H84.6975H84.5683H84.439H84.3098H84.1805H84.0513H83.9221H83.7928V15.2859H83.6636V15.1567V15.0274V14.8982V14.7689V14.6397V14.5105V14.3812V14.252V14.1227V13.9935V13.8643V13.735V13.6058V13.4766V13.3473V13.2181V13.0888V12.9596V12.8304V12.7011V12.5719V12.4426V12.3134V12.1842V12.0549V11.9257V11.7965V11.6672V11.538V11.4087V11.2795V11.1503V11.021V10.8918V10.7626V10.6333V10.5041V10.3748V10.2456V10.1164V9.98713V9.85789V9.72865H83.5343V9.59941V9.47017V9.34093H83.4051V9.2117V9.08246H83.2759V8.95322V8.82398H83.1466V8.69474H83.0174V8.56551H82.8882H82.7589V8.43627H82.6297H82.5004V8.30703H82.3712H82.242H82.1127V8.17779H81.9835H81.8543H81.725H81.5958L81.4665 8.30703H81.3373H81.2081H81.0788L80.9496 8.43627H80.8203L80.6911 8.56551H80.5619L80.4326 8.69474L80.3034 8.82398L80.1742 8.95322L80.0449 9.08246V9.2117L79.9157 9.34093L79.7864 9.47017V9.59941V9.72865L79.6572 9.85789V9.98713V10.1164V10.2456L79.528 10.3748V10.5041V10.6333V10.7626V10.8918V11.021V11.1503V11.2795V11.4087V11.538V11.6672V11.7965V11.9257V12.0549V12.1842V12.3134V12.4426V12.5719V12.7011V12.8304V12.9596V13.0888V13.2181V13.3473V13.4766V13.6058V13.735V13.8643V13.9935V14.1227V14.252V14.3812V14.5105V14.6397V14.7689V14.8982V15.0274V15.1567V15.2859V15.4151H79.3987H79.2695H79.1403H79.011H78.8818H78.7525H78.6233H78.4941H78.3648H78.2356V15.2859V15.1567V15.0274V14.8982V14.7689V14.6397V14.5105V14.3812V14.252V14.1227V13.9935V13.8643V13.735V13.6058V13.4766V13.3473V13.2181V13.0888V12.9596V12.8304V12.7011V12.5719V12.4426V12.3134V12.1842V12.0549V11.9257V11.7965V11.6672V11.538V11.4087V11.2795V11.1503V11.021V10.8918V10.7626V10.6333V10.5041V10.3748V10.2456V10.1164H78.1063V9.98713V9.85789V9.72865V9.59941H77.9771V9.47017V9.34093V9.2117H77.8479V9.08246V8.95322H77.7186V8.82398H77.5894V8.69474H77.4602V8.56551H77.3309V8.43627H77.2017H77.0724V8.30703H76.9432H76.814H76.6847H76.5555V8.17779H76.4263H76.297H76.1678H76.0385L75.9093 8.30703H75.7801H75.6508H75.5216L75.3923 8.43627H75.2631L75.1339 8.56551L75.0046 8.69474L74.8754 8.82398L74.7462 8.95322L74.6169 9.08246L74.4877 9.2117V9.34093L74.3584 9.47017V9.59941L74.2292 9.72865V9.85789L74.1 9.98713V10.1164V10.2456V10.3748V10.5041V10.6333V10.7626L73.9707 10.8918V11.021V11.1503V11.2795V11.4087V11.538V11.6672V11.7965V11.9257V12.0549V12.1842V12.3134V12.4426V12.5719V12.7011V12.8304V12.9596V13.0888V13.2181V13.3473V13.4766V13.6058V13.735V13.8643V13.9935V14.1227V14.252V14.3812V14.5105V14.6397V14.7689V14.8982V15.0274V15.1567V15.2859V15.4151H73.8415H73.7122H73.583H73.4538H73.3245H73.1953H73.0661H72.9368H72.8076H72.6783V15.2859V15.1567V15.0274V14.8982V14.7689V14.6397V14.5105V14.3812V14.252V14.1227V13.9935V13.8643V13.735V13.6058V13.4766V13.3473V13.2181V13.0888V12.9596V12.8304V12.7011V12.5719V12.4426V12.3134V12.1842V12.0549V11.9257V11.7965V11.6672V11.538V11.4087V11.2795V11.1503V11.021V10.8918V10.7626V10.6333V10.5041V10.3748V10.2456V10.1164V9.98713V9.85789V9.72865V9.59941V9.47017V9.34093V9.2117V9.08246V8.95322V8.82398V8.69474V8.56551V8.43627V8.30703V8.17779V8.04855V7.91932V7.79008V7.66084V7.5316V7.40236V7.27312L72.8076 7.14389H72.9368H73.0661H73.1953H73.3245H73.4538H73.583H73.7122H73.8415V7.27312V7.40236H73.9707V7.5316V7.66084V7.79008V7.91932V8.04855H74.1H74.2292L74.3584 7.91932L74.4877 7.79008L74.6169 7.66084L74.7462 7.5316L74.8754 7.40236H75.0046L75.1339 7.27312H75.2631L75.3923 7.14389H75.5216H75.6508L75.7801 7.01465H75.9093H76.0385H76.1678H76.297H76.4263H76.5555H76.6847H76.814H76.9432H77.0724H77.2017V7.14389H77.3309H77.4602H77.5894V7.27312H77.7186H77.8479H77.9771V7.40236H78.1063V7.5316H78.2356H78.3648V7.66084H78.4941V7.79008H78.6233V7.91932H78.7525V8.04855V8.17779H78.8818V8.30703H79.011V8.43627H79.1403L79.2695 8.30703L79.3987 8.17779L79.528 8.04855V7.91932L79.6572 7.79008L79.7864 7.66084H79.9157L80.0449 7.5316L80.1742 7.40236H80.3034L80.4326 7.27312H80.5619L80.6911 7.14389H80.8203H80.9496H81.0788L81.2081 7.01465H81.3373H81.4665H81.5958H81.725H81.8543H81.9835H82.1127H82.242H82.3712H82.5004H82.6297H82.7589V7.14389H82.8882H83.0174H83.1466V7.27312H83.2759H83.4051H83.5343V7.40236H83.6636V7.5316H83.7928H83.9221V7.66084H84.0513V7.79008H84.1805V7.91932H84.3098V8.04855H84.439V8.17779V8.30703H84.5683V8.43627V8.56551H84.6975V8.69474V8.82398H84.8267V8.95322V9.08246V9.2117H84.956V9.34093V9.47017V9.59941V9.72865V9.85789V9.98713V10.1164H85.0852V10.2456V10.3748V10.5041V10.6333V10.7626V10.8918V11.021V11.1503V11.2795V11.4087V11.538V11.6672V11.7965V11.9257V12.0549V12.1842V12.3134V12.4426V12.5719V12.7011V12.8304V12.9596V13.0888V13.2181V13.3473V13.4766V13.6058V13.735V13.8643V13.9935V14.1227V14.252V14.3812V14.5105V14.6397V14.7689V14.8982V15.0274V15.1567V15.2859L84.956 15.4151Z" fill="#919DE3"></path><path fill-rule="evenodd" clip-rule="evenodd" d="M17.3646 32.087H17.4938L17.6231 31.9578H17.7523L17.8815 31.8285V31.6993L18.0108 31.57V31.4408V31.3116V31.1823V31.0531V30.9239V30.7946V30.6654V30.5361V30.4069V30.2777V30.1484V30.0192V29.89V29.7607V29.6315V29.5022V29.373V29.2438V29.1145V28.9853L18.14 28.856V28.7268V28.5976L18.2693 28.4683L18.3985 28.3391L18.5277 28.2099H18.657L18.7862 28.0806H18.9154H19.0447H19.1739H19.3032H19.4324H19.5616H19.6909H19.8201H19.9493H20.0786H20.2078H20.3371H20.4663H20.5955H20.7248H20.854H20.9833H21.1125H21.2417H21.371H21.5002L21.6294 27.9514H21.7587L21.8879 27.8221L22.0172 27.6929L22.1464 27.5637V27.4344V27.3052V27.176V27.0467V26.9175V26.7882V26.659V26.5298V26.4005V26.2713V26.142V26.0128V25.8836V25.7543V25.6251V25.4959V25.3666V25.2374V25.1081V24.9789V24.8497L22.2756 24.7204V24.5912L22.4049 24.462L22.5341 24.3327L22.6633 24.2035L22.7926 24.0742H22.9218H23.0511H23.1803H23.3095H23.4388H23.568H23.6973H23.8265H23.9557H24.085H24.2142H24.3434H24.4727H24.6019H24.7312H24.8604H24.9896H25.1189H25.2481H25.3773H25.5066H25.6358L25.7651 23.945H25.8943L26.0235 23.8158L26.1528 23.6865V23.5573L26.282 23.428V23.2988V23.1696V23.0403V22.9111V22.7819V22.6526V22.5234V22.3941V22.2649V22.1357V22.0064V21.8772V21.7479V21.6187V21.4895V21.3602V21.231V21.1018V20.9725V20.8433V20.714L26.4113 20.5848V20.4556L26.5405 20.3263L26.6697 20.1971L26.799 20.0679H26.9282H27.0574H27.1867H27.3159H27.4452H27.5744H27.7036H27.8329H27.9621H28.0914H28.2206H28.3498H28.4791H28.6083H28.7375H28.8668H28.996H29.1253H29.2545H29.3837H29.513H29.6422L29.7714 19.9386H29.9007L30.0299 19.8094L30.1592 19.6801L30.2884 19.5509V19.4217L30.4176 19.2924V19.1632V19.0339V18.9047V18.7755V18.6462V18.517V18.3878V18.2585V18.1293V18V17.8708V17.7416V17.6123V17.4831V17.3539V17.2246V17.0954V16.9661V16.8369V16.7077H30.2884V16.5784V16.4492H30.1592V16.3199H30.0299V16.1907H29.9007V16.0615H29.7714H29.6422V15.9322H29.513H29.3837H29.2545H29.1253H28.996H28.8668H28.7375H28.6083H28.4791H28.3498H28.2206H28.0914H27.9621H27.8329H27.7036H27.5744H27.4452H27.3159H27.1867H27.0574H26.9282H26.799V15.803H26.6697H26.5405V15.6738H26.4113V15.5445V15.4153H26.282V15.286V15.1568V15.0276V14.8983V14.7691V14.6399V14.5106V14.3814V14.2521V14.1229V13.9937V13.8644V13.7352V13.6059V13.4767V13.3475V13.2182V13.089V12.9598V12.8305V12.7013V12.572H26.1528V12.4428V12.3136H26.0235V12.1843H25.8943V12.0551H25.7651H25.6358V11.9259H25.5066H25.3773H25.2481H25.1189H24.9896H24.8604H24.7312H24.6019H24.4727H24.3434H24.2142H24.085H23.9557H23.8265H23.6973H23.568H23.4388H23.3095H23.1803H23.0511H22.9218H22.7926H22.6633V11.7966H22.5341V11.6674H22.4049V11.5381H22.2756V11.4089V11.2797H22.1464V11.1504V11.0212V10.8919V10.7627V10.6335V10.5042V10.375V10.2458V10.1165V9.98728V9.85804V9.7288V9.59956V9.47033V9.34109V9.21185V9.08261V8.95337V8.82414V8.6949V8.56566V8.43642H22.0172V8.30718H21.8879V8.17794H21.7587V8.04871H21.6294H21.5002V7.91947H21.371H21.2417H21.1125H20.9833H20.854H20.7248H20.5955H20.4663H20.3371H20.2078H20.0786H19.9493H19.8201H19.6909H19.5616H19.4324H19.3032H19.1739H19.0447H18.9154H18.7862H18.657V7.79023H18.5277H18.3985V7.66099H18.2693V7.53175H18.14V7.40252V7.27328V7.14404H18.0108V7.0148V6.88556V6.75633V6.62709V6.49785V6.36861V6.23937V6.11013V5.9809V5.85166V5.72242V5.59318V5.46394V5.33471V5.20547V5.07623V4.94699V4.81775V4.68851V4.55928V4.43004H17.8815V4.3008V4.17156H17.7523V4.04232H17.6231H17.4938V3.91309H17.3646H17.2353H17.1061H16.9769H16.8476H16.7184H16.5892H16.4599H16.3307H16.2014H16.0722H15.943H15.8137H15.6845H15.5553H15.426H15.2968H15.1675H15.0383H14.9091H14.7798H14.6506L14.5213 4.04232H14.3921L14.2629 4.17156L14.1336 4.3008V4.43004L14.0044 4.55928V4.68851V4.81775V4.94699V5.07623V5.20547V5.33471V5.46394V5.59318V5.72242V5.85166V5.9809V6.11013V6.23937V6.36861V6.49785V6.62709V6.75633V6.88556V7.0148V7.14404L13.8752 7.27328V7.40252V7.53175L13.7459 7.66099L13.6167 7.79023H13.4874L13.3582 7.91947H13.229H13.0997H12.9705H12.8413H12.712H12.5828H12.4535H12.3243H12.1951H12.0658H11.9366H11.8073H11.6781H11.5489H11.4196H11.2904H11.1612H11.0319H10.9027H10.7734H10.6442L10.515 8.04871H10.3857L10.2565 8.17794L10.1273 8.30718L9.99801 8.43642L9.86877 8.56566V8.6949V8.82414V8.95337V9.08261V9.21185V9.34109V9.47033V9.59956V9.7288V9.85804V9.98728V10.1165V10.2458V10.375V10.5042V10.6335V10.7627V10.8919V11.0212V11.1504V11.2797L9.73954 11.4089V11.5381L9.6103 11.6674L9.48106 11.7966L9.35182 11.9259H9.22258H9.09335H8.96411H8.83487H8.70563H8.57639H8.44715H8.31792H8.18868H8.05944H7.9302H7.80096H7.67173H7.54249H7.41325H7.28401H7.15477H7.02554H6.8963H6.76706H6.63782L6.50858 12.0551H6.37934H6.25011L6.12087 12.1843L5.99163 12.3136L5.86239 12.4428V12.572L5.73315 12.7013V12.8305V12.9598V13.089V13.2182V13.3475V13.4767V13.6059V13.7352V13.8644V13.9937V14.1229V14.2521V14.3814V14.5106V14.6399V14.7691V14.8983V15.0276V15.1568V15.286V15.4153L5.60392 15.5445V15.6738L5.47468 15.803H5.34544L5.2162 15.9322H5.08696H4.95773H4.82849H4.69925H4.57001H4.44077H4.31153H4.1823H4.05306H3.92382H3.79458H3.66534H3.53611H3.40687H3.27763H3.14839H3.01915H2.88992H2.76068H2.63144L2.5022 16.0615H2.37296H2.24372L2.11449 16.1907H1.98525L1.85601 16.3199V16.4492L1.72677 16.5784V16.7077L1.59753 16.8369V16.9661V17.0954V17.2246V17.3539V17.4831V17.6123V17.7416V17.8708V18V18.1293V18.2585V18.3878V18.517V18.6462V18.7755V18.9047V19.0339V19.1632V19.2924H1.72677V19.4217V19.5509H1.85601V19.6801V19.8094H1.98525H2.11449V19.9386H2.24372H2.37296H2.5022V20.0679H2.63144H2.76068H2.88992H3.01915H3.14839H3.27763H3.40687H3.53611H3.66534H3.79458H3.92382H4.05306H4.1823H4.31153H4.44077H4.57001H4.69925H4.82849H4.95773H5.08696H5.2162V20.1971H5.34544H5.47468V20.3263H5.60392V20.4556V20.5848H5.73315V20.714V20.8433V20.9725V21.1018V21.231V21.3602V21.4895V21.6187V21.7479V21.8772V22.0064V22.1357V22.2649V22.3941V22.5234V22.6526V22.7819V22.9111V23.0403V23.1696V23.2988V23.428H5.86239V23.5573V23.6865H5.99163V23.8158H6.12087V23.945H6.25011H6.37934V24.0742H6.50858H6.63782H6.76706H6.8963H7.02554H7.15477H7.28401H7.41325H7.54249H7.67173H7.80096H7.9302H8.05944H8.18868H8.31792H8.44715H8.57639H8.70563H8.83487H8.96411H9.09335H9.22258H9.35182V24.2035H9.48106V24.3327H9.6103V24.462H9.73954V24.5912V24.7204H9.86877V24.8497V24.9789V25.1081V25.2374V25.3666V25.4959V25.6251V25.7543V25.8836V26.0128V26.142V26.2713V26.4005V26.5298V26.659V26.7882V26.9175V27.0467V27.176V27.3052V27.4344V27.5637H9.99801V27.6929H10.1273V27.8221H10.2565V27.9514H10.3857H10.515V28.0806H10.6442H10.7734H10.9027H11.0319H11.1612H11.2904H11.4196H11.5489H11.6781H11.8073H11.9366H12.0658H12.1951H12.3243H12.4535H12.5828H12.712H12.8413H12.9705H13.0997H13.229H13.3582V28.2099H13.4874H13.6167V28.3391H13.7459V28.4683H13.8752V28.5976V28.7268V28.856H14.0044V28.9853V29.1145V29.2438V29.373V29.5022V29.6315V29.7607V29.89V30.0192V30.1484V30.2777V30.4069V30.5361V30.6654V30.7946V30.9239V31.0531V31.1823V31.3116V31.4408V31.57H14.1336V31.6993V31.8285H14.2629V31.9578H14.3921H14.5213V32.087H14.6506H14.7798H14.9091H15.0383H15.1675H15.2968H15.426H15.5553H15.6845H15.8137H15.943H16.0722H16.2014H16.3307H16.4599H16.5892H16.7184H16.8476H16.9769H17.1061H17.2353H17.3646ZM17.4939 27.9512L17.3646 28.0805H17.2354H17.1062H16.9769H16.8477H16.7185H16.5892H16.46H16.3307H16.2015H16.0723H15.943H15.8138H15.6845H15.5553H15.4261H15.2968H15.1676H15.0384H14.9091H14.7799H14.6506V27.9512H14.5214H14.3922V27.822H14.2629V27.6928H14.1337V27.5635H14.0045V27.4343V27.305V27.1758V27.0466V26.9173V26.7881V26.6589V26.5296V26.4004V26.2711V26.1419V26.0127V25.8834V25.7542V25.625V25.4957V25.3665V25.2372V25.108V24.9788V24.8495V24.7203H13.8752V24.591V24.4618H13.746V24.3326H13.6167V24.2033H13.4875V24.0741H13.3583H13.229H13.0998H12.9705H12.8413H12.7121H12.5828H12.4536H12.3244H12.1951H12.0659H11.9366H11.8074H11.6782H11.5489H11.4197H11.2905H11.1612H11.032H10.9027H10.7735H10.6443H10.515V23.9449H10.3858H10.2565V23.8156H10.1273V23.6864H9.99807V23.5571V23.4279H9.86883V23.2987V23.1694V23.0402V22.9109V22.7817V22.6525V22.5232V22.394V22.2648V22.1355V22.0063V21.877V21.7478V21.6186V21.4893V21.3601V21.2309V21.1016V20.9724V20.8431V20.7139V20.5847H9.73959V20.4554V20.3262H9.61036V20.1969H9.48112V20.0677H9.35188H9.22264H9.0934H8.96417H8.83493H8.70569H8.57645H8.44721H8.31798H8.18874H8.0595H7.93026H7.80102H7.67178H7.54255H7.41331H7.28407H7.15483H7.02559H6.89636H6.76712H6.63788V19.9385H6.50864H6.3794H6.25016V19.8092H6.12093H5.99169V19.68V19.5508H5.86245V19.4215V19.2923H5.73321V19.163V19.0338V18.9046V18.7753V18.6461V18.5169V18.3876V18.2584V18.1291V17.9999V17.8707V17.7414V17.6122V17.4829V17.3537V17.2245V17.0952V16.966V16.8368L5.86245 16.7075V16.5783L5.99169 16.449V16.3198L6.12093 16.1906H6.25016L6.3794 16.0613H6.50864H6.63788L6.76712 15.9321H6.89636H7.02559H7.15483H7.28407H7.41331H7.54255H7.67178H7.80102H7.93026H8.0595H8.18874H8.31798H8.44721H8.57645H8.70569H8.83493H8.96417H9.0934H9.22264H9.35188H9.48112L9.61036 15.8029L9.73959 15.6736V15.5444L9.86883 15.4151V15.2859V15.1567V15.0274V14.8982V14.7689V14.6397V14.5105V14.3812V14.252V14.1228V13.9935V13.8643V13.735V13.6058V13.4766V13.3473V13.2181V13.0889V12.9596V12.8304V12.7011L9.99807 12.5719V12.4427L10.1273 12.3134L10.2565 12.1842L10.3858 12.0549H10.515L10.6443 11.9257H10.7735H10.9027H11.032H11.1612H11.2905H11.4197H11.5489H11.6782H11.8074H11.9366H12.0659H12.1951H12.3244H12.4536H12.5828H12.7121H12.8413H12.9705H13.0998H13.229H13.3583H13.4875L13.6167 11.7965L13.746 11.6672L13.8752 11.538V11.4088L14.0045 11.2795V11.1503V11.021V10.8918V10.7626V10.6333V10.5041V10.3749V10.2456V10.1164V9.98714V9.8579V9.72866V9.59942V9.47018V9.34095V9.21171V9.08247V8.95323V8.82399V8.69476V8.56552L14.1337 8.43628L14.2629 8.30704L14.3922 8.1778L14.5214 8.04857H14.6506L14.7799 7.91933H14.9091H15.0384H15.1676H15.2968H15.4261H15.5553H15.6845H15.8138H15.943H16.0723H16.2015H16.3307H16.46H16.5892H16.7185H16.8477H16.9769H17.1062H17.2354H17.3646V8.04857H17.4939H17.6231V8.1778H17.7524V8.30704H17.8816V8.43628H18.0108V8.56552V8.69476V8.82399V8.95323V9.08247V9.21171V9.34095V9.47018V9.59942V9.72866V9.8579V9.98714V10.1164V10.2456V10.3749V10.5041V10.6333V10.7626V10.8918V11.021V11.1503V11.2795H18.1401V11.4088V11.538H18.2693V11.6672V11.7965H18.3985H18.5278V11.9257H18.657H18.7863H18.9155H19.0447H19.174H19.3032H19.4325H19.5617H19.6909H19.8202H19.9494H20.0786H20.2079H20.3371H20.4664H20.5956H20.7248H20.8541H20.9833H21.1125H21.2418H21.371V12.0549H21.5003H21.6295H21.7587V12.1842H21.888V12.3134H22.0172V12.4427V12.5719H22.1465V12.7011V12.8304V12.9596V13.0889V13.2181V13.3473V13.4766V13.6058V13.735V13.8643V13.9935V14.1228V14.252V14.3812V14.5105V14.6397V14.7689V14.8982V15.0274V15.1567V15.2859V15.4151H22.2757V15.5444V15.6736H22.4049V15.8029H22.5342V15.9321H22.6634H22.7926H22.9219H23.0511H23.1804H23.3096H23.4388H23.5681H23.6973H23.8265H23.9558H24.085H24.2143H24.3435H24.4727H24.602H24.7312H24.8605H24.9897H25.1189H25.2482H25.3774V16.0613H25.5066H25.6359H25.7651V16.1906H25.8944V16.3198H26.0236V16.449H26.1528V16.5783V16.7075H26.2821V16.8368V16.966V17.0952V17.2245V17.3537V17.4829V17.6122V17.7414V17.8707V17.9999V18.1291V18.2584V18.3876V18.5169V18.6461V18.7753V18.9046V19.0338V19.163V19.2923L26.1528 19.4215V19.5508L26.0236 19.68V19.8092H25.8944L25.7651 19.9385H25.6359H25.5066L25.3774 20.0677H25.2482H25.1189H24.9897H24.8605H24.7312H24.602H24.4727H24.3435H24.2143H24.085H23.9558H23.8265H23.6973H23.5681H23.4388H23.3096H23.1804H23.0511H22.9219H22.7926H22.6634L22.5342 20.1969L22.4049 20.3262L22.2757 20.4554V20.5847L22.1465 20.7139V20.8431V20.9724V21.1016V21.2309V21.3601V21.4893V21.6186V21.7478V21.877V22.0063V22.1355V22.2648V22.394V22.5232V22.6525V22.7817V22.9109V23.0402V23.1694V23.2987V23.4279L22.0172 23.5571V23.6864L21.888 23.8156L21.7587 23.9449H21.6295H21.5003L21.371 24.0741H21.2418H21.1125H20.9833H20.8541H20.7248H20.5956H20.4664H20.3371H20.2079H20.0786H19.9494H19.8202H19.6909H19.5617H19.4325H19.3032H19.174H19.0447H18.9155H18.7863H18.657L18.5278 24.2033L18.3985 24.3326L18.2693 24.4618L18.1401 24.591V24.7203L18.0108 24.8495V24.9788V25.108V25.2372V25.3665V25.4957V25.625V25.7542V25.8834V26.0127V26.1419V26.2711V26.4004V26.5296V26.6589V26.7881V26.9173V27.0466V27.1758V27.305V27.4343V27.5635L17.8816 27.6928L17.7524 27.822L17.6231 27.9512H17.4939Z" fill="#919DE3"></path><path fill-rule="evenodd" clip-rule="evenodd" d="M55.49 15.4151H55.6192L55.7485 15.2859H55.8777H56.0069L56.1362 15.1567H56.2654H56.3947L56.5239 15.0274H56.6531L56.7824 14.8982L56.9116 14.7689H57.0409L57.1701 14.6397L57.2993 14.5105L57.4286 14.3812L57.5578 14.252L57.687 14.1227L57.8163 13.9935V13.8643L57.9455 13.735L58.0748 13.6058V13.4766L58.204 13.3473V13.2181L58.3332 13.0888V12.9596V12.8304L58.4625 12.7011V12.5719V12.4426V12.3134L58.5917 12.1842V12.0549V11.9257V11.7965V11.6672V11.538V11.4087V11.2795V11.1503V11.021V10.8918V10.7626V10.6333V10.5041V10.3748V10.2456H58.4625V10.1164V9.98713V9.85789V9.72865H58.3332V9.59941V9.47017V9.34093H58.204V9.2117V9.08246H58.0748V8.95322V8.82398H57.9455V8.69474H57.8163V8.56551V8.43627H57.687V8.30703H57.5578V8.17779H57.4286V8.04855H57.2993V7.91932H57.1701V7.79008H57.0409H56.9116V7.66084H56.7824V7.5316H56.6531H56.5239V7.40236H56.3947H56.2654V7.27312H56.1362H56.0069H55.8777V7.14389H55.7485H55.6192H55.49H55.3608V7.01465H55.2315H55.1023H54.973H54.8438H54.7146H54.5853H54.4561H54.3269H54.1976H54.0684H53.9391H53.8099L53.6807 7.14389H53.5514H53.4222H53.2929L53.1637 7.27312H53.0345H52.9052L52.776 7.40236H52.6468L52.5175 7.5316H52.3883L52.259 7.66084L52.1298 7.79008H52.0006L51.8713 7.91932L51.7421 8.04855L51.6129 8.17779L51.4836 8.30703L51.3544 8.43627L51.2251 8.56551V8.69474L51.0959 8.82398L50.9667 8.95322V9.08246L50.8374 9.2117V9.34093L50.7082 9.47017V9.59941V9.72865L50.5789 9.85789V9.98713V10.1164L50.4497 10.2456V10.3748V10.5041V10.6333V10.7626V10.8918V11.021V11.1503V11.2795V11.4087V11.538V11.6672V11.7965V11.9257V12.0549V12.1842V12.3134H50.5789V12.4426V12.5719V12.7011V12.8304H50.7082V12.9596V13.0888H50.8374V13.2181V13.3473H50.9667V13.4766V13.6058H51.0959V13.735V13.8643H51.2251V13.9935H51.3544V14.1227H51.4836V14.252H51.6129V14.3812H51.7421V14.5105H51.8713V14.6397H52.0006V14.7689H52.1298H52.259V14.8982H52.3883V15.0274H52.5175H52.6468V15.1567H52.776H52.9052H53.0345V15.2859H53.1637H53.2929H53.4222V15.4151H53.5514H53.6807H53.8099H53.9391H54.0684H54.1976H54.3269H54.4561H54.5853H54.7146H54.8438H54.973H55.1023H55.2315H55.3608H55.49ZM55.3608 14.123L55.2316 14.2522H55.1024H54.9731H54.8439H54.7146H54.5854H54.4562H54.3269H54.1977H54.0685H53.9392H53.81V14.123H53.6807H53.5515H53.4223V13.9937H53.293H53.1638V13.8645H53.0345V13.7353H52.9053H52.7761V13.606H52.6468V13.4768H52.5176V13.3476H52.3884V13.2183V13.0891H52.2591V12.9598H52.1299V12.8306V12.7014H52.0006V12.5721V12.4429V12.3137H51.8714V12.1844V12.0552V11.9259V11.7967H51.7422V11.6675V11.5382V11.409V11.2797V11.1505V11.0213V10.892L51.8714 10.7628V10.6336V10.5043V10.3751V10.2458L52.0006 10.1166V9.98737L52.1299 9.85813V9.72889L52.2591 9.59965V9.47041L52.3884 9.34117L52.5176 9.21194L52.6468 9.0827L52.7761 8.95346L52.9053 8.82422L53.0345 8.69498L53.1638 8.56575L53.293 8.43651H53.4223H53.5515L53.6807 8.30727H53.81H53.9392L54.0685 8.17803H54.1977H54.3269H54.4562H54.5854H54.7146H54.8439H54.9731H55.1024V8.30727H55.2316H55.3608H55.4901V8.43651H55.6193H55.7485V8.56575H55.8778H56.007V8.69498H56.1363V8.82422H56.2655V8.95346H56.3947V9.0827H56.524V9.21194H56.6532V9.34117H56.7825V9.47041V9.59965H56.9117V9.72889V9.85813H57.0409V9.98737V10.1166V10.2458H57.1702V10.3751V10.5043V10.6336V10.7628V10.892H57.2994V11.0213V11.1505V11.2797V11.409V11.5382L57.1702 11.6675V11.7967V11.9259V12.0552V12.1844L57.0409 12.3137V12.4429V12.5721L56.9117 12.7014V12.8306L56.7825 12.9598V13.0891L56.6532 13.2183L56.524 13.3476V13.4768L56.3947 13.606L56.2655 13.7353H56.1363L56.007 13.8645L55.8778 13.9937H55.7485L55.6193 14.123H55.4901H55.3608Z" fill="#919DE3"></path><path fill-rule="evenodd" clip-rule="evenodd" d="M68.0259 15.4151H68.1551L68.2844 15.2859H68.4136H68.5428L68.6721 15.1567H68.8013H68.9305L69.0598 15.0274H69.189L69.3183 14.8982L69.4475 14.7689H69.5767L69.706 14.6397L69.8352 14.5105L69.9645 14.3812H70.0937V14.252L70.2229 14.1227L70.3522 13.9935L70.4814 13.8643V13.735L70.6106 13.6058L70.7399 13.4766V13.3473V13.2181L70.8691 13.0888V12.9596L70.9984 12.8304V12.7011V12.5719V12.4426L71.1276 12.3134V12.1842V12.0549V11.9257V11.7965V11.6672V11.538V11.4087V11.2795V11.1503V11.021V10.8918V10.7626V10.6333V10.5041V10.3748V10.2456V10.1164H70.9984V9.98713V9.85789V9.72865V9.59941H70.8691V9.47017V9.34093H70.7399V9.2117V9.08246H70.6106V8.95322V8.82398H70.4814V8.69474V8.56551H70.3522V8.43627H70.2229V8.30703H70.0937V8.17779H69.9645V8.04855H69.8352V7.91932H69.706V7.79008H69.5767V7.66084H69.4475H69.3183V7.5316H69.189H69.0598V7.40236H68.9305H68.8013V7.27312H68.6721H68.5428H68.4136V7.14389H68.2844H68.1551H68.0259H67.8966V7.01465H67.7674H67.6382H67.5089H67.3797H67.2505H67.1212H66.992H66.8627H66.7335H66.6043H66.475H66.3458L66.2165 7.14389H66.0873H65.9581H65.8288L65.6996 7.27312H65.5704H65.4411L65.3119 7.40236H65.1826L65.0534 7.5316H64.9242L64.7949 7.66084L64.6657 7.79008H64.5365L64.4072 7.91932L64.278 8.04855L64.1487 8.17779L64.0195 8.30703L63.8903 8.43627L63.761 8.56551V8.69474L63.6318 8.82398L63.5025 8.95322V9.08246L63.3733 9.2117V9.34093L63.2441 9.47017V9.59941V9.72865L63.1148 9.85789V9.98713V10.1164V10.2456V10.3748L62.9856 10.5041V10.6333V10.7626V10.8918V11.021V11.1503V11.2795V11.4087V11.538V11.6672V11.7965V11.9257V12.0549V12.1842H63.1148V12.3134V12.4426V12.5719V12.7011H63.2441V12.8304V12.9596V13.0888H63.3733V13.2181V13.3473H63.5025V13.4766V13.6058H63.6318V13.735H63.761V13.8643V13.9935H63.8903V14.1227H64.0195V14.252H64.1487V14.3812H64.278V14.5105H64.4072V14.6397H64.5365V14.7689H64.6657H64.7949V14.8982H64.9242V15.0274H65.0534H65.1826V15.1567H65.3119H65.4411H65.5704V15.2859H65.6996H65.8288H65.9581H66.0873V15.4151H66.2165H66.3458H66.475H66.6043H66.7335H66.8627H66.992H67.1212H67.2505H67.3797H67.5089H67.6382H67.7674H67.8966H68.0259ZM67.8965 14.123L67.7672 14.2522H67.638H67.5088H67.3795H67.2503H67.121H66.9918H66.8626H66.7333H66.6041H66.4748H66.3456V14.123H66.2164H66.0871H65.9579V13.9937H65.8287H65.6994V13.8645H65.5702V13.7353H65.4409V13.606H65.3117H65.1825V13.4768H65.0532V13.3476V13.2183H64.924V13.0891H64.7948V12.9598V12.8306H64.6655V12.7014V12.5721H64.5363V12.4429V12.3137V12.1844H64.407V12.0552V11.9259V11.7967V11.6675V11.5382V11.409H64.2778V11.2797L64.407 11.1505V11.0213V10.892V10.7628V10.6336V10.5043V10.3751L64.5363 10.2458V10.1166V9.98737L64.6655 9.85813V9.72889L64.7948 9.59965V9.47041L64.924 9.34117L65.0532 9.21194L65.1825 9.0827L65.3117 8.95346L65.4409 8.82422L65.5702 8.69498L65.6994 8.56575H65.8287L65.9579 8.43651H66.0871L66.2164 8.30727H66.3456H66.4748L66.6041 8.17803H66.7333H66.8626H66.9918H67.121H67.2503H67.3795H67.5088H67.638V8.30727H67.7672H67.8965H68.0257V8.43651H68.1549H68.2842V8.56575H68.4134H68.5427V8.69498H68.6719V8.82422H68.8011H68.9304V8.95346H69.0596V9.0827V9.21194H69.1888V9.34117H69.3181V9.47041H69.4473V9.59965V9.72889H69.5766V9.85813V9.98737V10.1166H69.7058V10.2458V10.3751V10.5043V10.6336H69.835V10.7628V10.892V11.0213V11.1505V11.2797V11.409V11.5382V11.6675V11.7967L69.7058 11.9259V12.0552V12.1844V12.3137L69.5766 12.4429V12.5721V12.7014L69.4473 12.8306V12.9598L69.3181 13.0891L69.1888 13.2183V13.3476L69.0596 13.4768L68.9304 13.606L68.8011 13.7353L68.6719 13.8645H68.5427L68.4134 13.9937H68.2842L68.1549 14.123H68.0257H67.8965Z" fill="#919DE3"></path><path d="M40.8861 31.9579H40.7569H40.6276H40.4984H40.3691H40.2399H40.1107H39.9814H39.8522H39.723H39.5937H39.4645V31.8287V31.6994V31.5702V31.441V31.3117V31.1825V31.0533V30.924V30.7948V30.6655V30.5363V30.4071V30.2778V30.1486V30.0193V29.8901V29.7609V29.6316V29.5024V29.3732V29.2439V29.1147V28.9854V28.8562V28.727V28.5977V28.4685V28.3392V28.21V28.0808V27.9515V27.8223V27.6931V27.5638V27.4346V27.3053V27.1761V27.0469V26.9176V26.7884V26.6592V26.5299V26.4007V26.2714V26.1422V26.013V25.8837V25.7545V25.6252V25.496V25.3668V25.2375V25.1083V24.9791V24.8498V24.7206V24.5913V24.4621V24.3329V24.2036V24.0744V23.9452V23.8159V23.6867V23.5574V23.4282V23.299V23.1697V23.0405V22.9112V22.782V22.6528V22.5235V22.3943V22.2651V22.1358V22.0066V21.8773V21.7481V21.6189V21.4896V21.3604V21.2312V21.1019V20.9727V20.8434V20.7142L39.5937 20.585H39.723H39.8522H39.9814H40.1107H40.2399H40.3691H40.4984H40.6276H40.7569H40.8861H41.0153H41.1446H41.2738H41.403H41.5323H41.6615H41.7908H41.92H42.0492H42.1785H42.3077H42.437H42.5662H42.6954H42.8247H42.9539H43.0831H43.2124H43.3416H43.4709H43.6001H43.7293H43.8586H43.9878H44.1171H44.2463H44.3755H44.5048H44.634H44.7632H44.8925H45.0217H45.151H45.2802H45.4094H45.5387H45.6679H45.7971H45.9264H46.0556H46.1849H46.3141H46.4433V20.7142V20.8434V20.9727V21.1019V21.2312V21.3604V21.4896V21.6189V21.7481V21.8773H46.3141H46.1849H46.0556H45.9264H45.7971H45.6679H45.5387H45.4094H45.2802H45.151H45.0217H44.8925H44.7632H44.634H44.5048H44.3755H44.2463H44.1171H43.9878H43.8586H43.7293H43.6001H43.4709H43.3416H43.2124H43.0831H42.9539H42.8247H42.6954H42.5662H42.437H42.3077H42.1785H42.0492H41.92H41.7908H41.6615H41.5323H41.403H41.2738H41.1446H41.0153L40.8861 22.0066V22.1358V22.2651V22.3943V22.5235V22.6528V22.782V22.9112V23.0405V23.1697V23.299V23.4282V23.5574V23.6867V23.8159V23.9452V24.0744V24.2036V24.3329V24.4621V24.5913V24.7206V24.8498V24.9791V25.1083V25.2375V25.3668V25.496V25.6252V25.7545H41.0153H41.1446H41.2738H41.403H41.5323H41.6615H41.7908H41.92H42.0492H42.1785H42.3077H42.437H42.5662H42.6954H42.8247H42.9539H43.0831H43.2124H43.3416H43.4709H43.6001H43.7293H43.8586H43.9878H44.1171H44.2463H44.3755H44.5048H44.634H44.7632H44.8925H45.0217H45.151H45.2802H45.4094H45.5387V25.8837V26.013V26.1422V26.2714V26.4007V26.5299V26.6592V26.7884V26.9176V27.0469H45.4094H45.2802H45.151H45.0217H44.8925H44.7632H44.634H44.5048H44.3755H44.2463H44.1171H43.9878H43.8586H43.7293H43.6001H43.4709H43.3416H43.2124H43.0831H42.9539H42.8247H42.6954H42.5662H42.437H42.3077H42.1785H42.0492H41.92H41.7908H41.6615H41.5323H41.403H41.2738H41.1446H41.0153L40.8861 27.1761V27.3053V27.4346V27.5638V27.6931V27.8223V27.9515V28.0808V28.21V28.3392V28.4685V28.5977V28.727V28.8562V28.9854V29.1147V29.2439V29.3732V29.5024V29.6316V29.7609V29.8901V30.0193V30.1486V30.2778V30.4071V30.5363V30.6655V30.7948V30.924V31.0533V31.1825V31.3117V31.441V31.5702V31.6994V31.8287V31.9579Z" fill="#919DE3"></path><path d="M49.0278 22.2651H48.8986H48.7693H48.6401H48.5109H48.3816H48.2524H48.1232H47.9939V22.1358H47.8647V22.0066H47.7354V21.8773V21.7481H47.6062V21.6189V21.4896V21.3604L47.7354 21.2312V21.1019L47.8647 20.9727L47.9939 20.8434L48.1232 20.7142L48.2524 20.585H48.3816H48.5109H48.6401H48.7693V20.7142H48.8986H49.0278V20.8434H49.1571V20.9727H49.2863V21.1019V21.2312V21.3604H49.4155V21.4896V21.6189L49.2863 21.7481V21.8773V22.0066L49.1571 22.1358L49.0278 22.2651Z" fill="#919DE3"></path><path d="M90.5134 32.0868H90.3842H90.2549H90.1257H89.9965H89.8672H89.738H89.6088H89.4795H89.3503H89.221V31.9576V31.8283V31.6991V31.5699V31.4406V31.3114V31.1822V31.0529V30.9237V30.7944V30.6652V30.536V30.4067V30.2775V30.1483V30.019V29.8898V29.7605V29.6313V29.5021V29.3728V29.2436V29.1143V28.9851V28.8559V28.7266V28.5974V28.4682V28.3389V28.2097V28.0804V27.9512V27.822V27.6927V27.5635V27.4343V27.305V27.1758V27.0465H89.0918V26.9173V26.7881V26.6588V26.5296V26.4003H88.9626V26.2711V26.1419H88.8333V26.0126V25.8834H88.7041V25.7542H88.5749V25.6249H88.4456V25.4957H88.3164V25.3664H88.1871V25.2372H88.0579H87.9287V25.108H87.7994H87.6702H87.5409V24.9787H87.4117H87.2825H87.1532H87.024H86.8948H86.7655H86.6363H86.507H86.3778L86.2486 25.108H86.1193H85.9901L85.8609 25.2372H85.7316L85.6024 25.3664L85.4731 25.4957L85.3439 25.6249L85.2147 25.7542L85.0854 25.8834L84.9562 26.0126V26.1419L84.8269 26.2711V26.4003L84.6977 26.5296V26.6588L84.5685 26.7881V26.9173V27.0465V27.1758L84.4392 27.305V27.4343V27.5635V27.6927V27.822V27.9512V28.0804V28.2097V28.3389V28.4682V28.5974V28.7266V28.8559V28.9851V29.1143V29.2436V29.3728V29.5021V29.6313V29.7605V29.8898V30.019V30.1483V30.2775V30.4067V30.536V30.6652V30.7944V30.9237V31.0529V31.1822V31.3114V31.4406V31.5699V31.6991V31.8283V31.9576V32.0868H84.31H84.1808H84.0515H83.9223H83.793H83.6638H83.5346H83.4053H83.2761H83.1469V31.9576V31.8283V31.6991V31.5699V31.4406V31.3114V31.1822V31.0529V30.9237V30.7944V30.6652V30.536V30.4067V30.2775V30.1483V30.019V29.8898V29.7605V29.6313V29.5021V29.3728V29.2436V29.1143V28.9851V28.8559V28.7266V28.5974V28.4682V28.3389V28.2097V28.0804V27.9512V27.822V27.6927V27.5635V27.4343V27.305V27.1758V27.0465V26.9173V26.7881V26.6588V26.5296V26.4003V26.2711V26.1419V26.0126V25.8834V25.7542V25.6249V25.4957V25.3664V25.2372V25.108V24.9787V24.8495V24.7202V24.591V24.4618V24.3325V24.2033V24.0741V23.9448V23.8156V23.6863V23.5571V23.4279V23.2986V23.1694V23.0402V22.9109V22.7817V22.6524V22.5232V22.394V22.2647V22.1355V22.0062V21.877V21.7478V21.6185V21.4893V21.3601V21.2308V21.1016V20.9723V20.8431L83.2761 20.7139H83.4053H83.5346H83.6638H83.793H83.9223H84.0515H84.1808H84.31H84.4392V20.8431V20.9723V21.1016V21.2308V21.3601V21.4893V21.6185V21.7478V21.877V22.0062V22.1355V22.2647V22.394V22.5232V22.6524V22.7817V22.9109V23.0402V23.1694V23.2986V23.4279V23.5571V23.6863V23.8156V23.9448V24.0741V24.2033V24.3325V24.4618V24.591V24.7202V24.8495V24.9787V25.108H84.5685V24.9787L84.6977 24.8495L84.8269 24.7202L84.9562 24.591L85.0854 24.4618L85.2147 24.3325H85.3439L85.4731 24.2033L85.6024 24.0741H85.7316L85.8609 23.9448H85.9901H86.1193L86.2486 23.8156H86.3778H86.507H86.6363H86.7655H86.8948L87.024 23.6863H87.1532H87.2825H87.4117V23.8156H87.5409H87.6702H87.7994H87.9287H88.0579H88.1871H88.3164V23.9448H88.4456H88.5749H88.7041V24.0741H88.8333H88.9626V24.2033H89.0918V24.3325H89.221H89.3503V24.4618H89.4795V24.591H89.6088V24.7202H89.738V24.8495H89.8672V24.9787V25.108H89.9965V25.2372H90.1257V25.3664V25.4957V25.6249H90.2549V25.7542V25.8834V26.0126H90.3842V26.1419V26.2711V26.4003V26.5296H90.5134V26.6588V26.7881V26.9173V27.0465V27.1758V27.305V27.4343V27.5635V27.6927V27.822V27.9512V28.0804V28.2097V28.3389V28.4682V28.5974V28.7266V28.8559V28.9851V29.1143V29.2436V29.3728V29.5021V29.6313V29.7605V29.8898V30.019V30.1483V30.2775V30.4067V30.536V30.6652V30.7944V30.9237V31.0529V31.1822V31.3114V31.4406V31.5699V31.6991V31.8283V31.9576V32.0868Z" fill="#919DE3"></path><path d="M64.2779 31.9574H64.1487H64.0194H63.8902H63.761H63.6317H63.5025H63.3733H63.244H63.1148H62.9855H62.8563H62.7271H62.5978H62.4686H62.3394H62.2101H62.0809H61.9516V31.8282H61.8224H61.6932H61.5639V31.6989H61.4347H61.3054V31.5697H61.1762V31.4404H61.047V31.3112H60.9177V31.182V31.0527H60.7885V30.9235V30.7942V30.665V30.5358H60.6593V30.4065V30.2773V30.1481V30.0188V29.8896V29.7603V29.6311V29.5019V29.3726V29.2434V29.1142V28.9849V28.8557V28.7264V28.5972V28.468V28.3387V28.2095V28.0802V27.951V27.8218V27.6925V27.5633V27.4341V27.3048V27.1756V27.0463V26.9171V26.7879V26.6586V26.5294V26.4002V26.2709V26.1417V26.0124V25.8832V25.754V25.6247V25.4955V25.3662V25.237V25.1078V24.9785H60.53H60.4008H60.2715H60.1423H60.0131H59.8838H59.7546H59.6254H59.4961H59.3669H59.2376V24.8493H59.1084V24.7201V24.5908V24.4616V24.3323V24.2031V24.0739V23.9446V23.8154L59.2376 23.6861H59.3669H59.4961H59.6254H59.7546H59.8838H60.0131H60.1423H60.2715H60.4008H60.53H60.6593V23.5569V23.4277V23.2984V23.1692V23.04V22.9107V22.7815V22.6522V22.523V22.3938V22.2645V22.1353V22.0061V21.8768V21.7476V21.6183V21.4891L60.7885 21.3599H60.9177H61.047H61.1762H61.3054H61.4347H61.5639H61.6932H61.8224H61.9516V21.4891V21.6183V21.7476V21.8768V22.0061V22.1353V22.2645V22.3938V22.523V22.6522V22.7815V22.9107V23.04V23.1692V23.2984V23.4277V23.5569V23.6861H62.0809H62.2101H62.3394H62.4686H62.5978H62.7271H62.8563H62.9855H63.1148H63.244H63.3733H63.5025H63.6317H63.761H63.8902H64.0194H64.1487V23.8154V23.9446V24.0739V24.2031V24.3323V24.4616V24.5908V24.7201V24.8493V24.9785H64.0194H63.8902H63.761H63.6317H63.5025H63.3733H63.244H63.1148H62.9855H62.8563H62.7271H62.5978H62.4686H62.3394H62.2101H62.0809L61.9516 25.1078V25.237V25.3662V25.4955V25.6247V25.754V25.8832V26.0124V26.1417V26.2709V26.4002V26.5294V26.6586V26.7879V26.9171V27.0463V27.1756V27.3048V27.4341V27.5633V27.6925V27.8218V27.951V28.0802V28.2095V28.3387V28.468V28.5972V28.7264V28.8557V28.9849V29.1142V29.2434V29.3726V29.5019V29.6311V29.7603V29.8896V30.0188V30.1481H62.0809V30.2773V30.4065H62.2101V30.5358H62.3394V30.665H62.4686H62.5978V30.7942H62.7271H62.8563H62.9855H63.1148H63.244H63.3733H63.5025H63.6317H63.761H63.8902H64.0194H64.1487H64.2779V30.9235V31.0527V31.182V31.3112V31.4404V31.5697V31.6989V31.8282V31.9574Z" fill="#919DE3"></path><path d="M58.3332 31.9576H58.204H58.0748H57.9455H57.8163H57.6871H57.5578H57.4286H57.2993H57.1701H57.0409V31.8284V31.6991V31.5699V31.4407V31.3114V31.1822V31.0529V30.9237V30.7945V30.6652V30.536V30.4067V30.2775V30.1483V30.019V29.8898V29.7606V29.6313V29.5021V29.3728V29.2436V29.1144V28.9851V28.8559V28.7267V28.5974V28.4682V28.3389V28.2097V28.0805V27.9512V27.822V27.6927V27.5635V27.4343V27.305V27.1758V27.0466V26.9173V26.7881H56.9116V26.6588V26.5296V26.4004V26.2711H56.7824V26.1419V26.0127H56.6532V25.8834V25.7542H56.5239V25.6249V25.4957H56.3947V25.3665H56.2654V25.2372H56.1362H56.007V25.108H55.8777H55.7485V24.9787H55.6192H55.49V24.8495H55.3608H55.2315H55.1023H54.9731H54.8438H54.7146H54.5853H54.4561H54.3269L54.1976 24.9787H54.0684H53.9392L53.8099 25.108H53.6807L53.5514 25.2372H53.4222L53.293 25.3665L53.1637 25.4957L53.0345 25.6249L52.9052 25.7542L52.776 25.8834V26.0127L52.6468 26.1419V26.2711L52.5175 26.4004V26.5296V26.6588L52.3883 26.7881V26.9173V27.0466V27.1758V27.305L52.2591 27.4343V27.5635V27.6927V27.822V27.9512V28.0805V28.2097V28.3389V28.4682V28.5974V28.7267V28.8559V28.9851V29.1144V29.2436V29.3728V29.5021V29.6313V29.7606V29.8898V30.019V30.1483V30.2775V30.4067V30.536V30.6652V30.7945V30.9237V31.0529V31.1822V31.3114V31.4407V31.5699V31.6991V31.8284V31.9576H52.1298H52.0006H51.8713H51.7421H51.6129H51.4836H51.3544H51.2252H51.0959H50.9667V31.8284V31.6991V31.5699V31.4407V31.3114V31.1822V31.0529V30.9237V30.7945V30.6652V30.536V30.4067V30.2775V30.1483V30.019V29.8898V29.7606V29.6313V29.5021V29.3728V29.2436V29.1144V28.9851V28.8559V28.7267V28.5974V28.4682V28.3389V28.2097V28.0805V27.9512V27.822V27.6927V27.5635V27.4343V27.305V27.1758V27.0466V26.9173V26.7881V26.6588V26.5296V26.4004V26.2711V26.1419V26.0127V25.8834V25.7542V25.6249V25.4957V25.3665V25.2372V25.108V24.9787V24.8495V24.7203V24.591V24.4618V24.3326V24.2033V24.0741V23.9448V23.8156L51.0959 23.6864H51.2252H51.3544H51.4836H51.6129H51.7421H51.8713H52.0006H52.1298V23.8156V23.9448V24.0741V24.2033H52.2591V24.3326V24.4618V24.591V24.7203H52.3883L52.5175 24.591L52.6468 24.4618L52.776 24.3326L52.9052 24.2033H53.0345L53.1637 24.0741H53.293L53.4222 23.9448H53.5514L53.6807 23.8156H53.8099H53.9392L54.0684 23.6864H54.1976H54.3269H54.4561H54.5853H54.7146L54.8438 23.5571H54.9731H55.1023H55.2315V23.6864H55.3608H55.49H55.6192H55.7485H55.8777H56.007H56.1362V23.8156H56.2654H56.3947H56.5239V23.9448H56.6532H56.7824V24.0741H56.9116H57.0409V24.2033H57.1701V24.3326H57.2993V24.4618H57.4286V24.591H57.5578V24.7203H57.6871V24.8495V24.9787H57.8163V25.108H57.9455V25.2372V25.3665H58.0748V25.4957V25.6249V25.7542H58.204V25.8834V26.0127V26.1419V26.2711H58.3332V26.4004V26.5296V26.6588V26.7881V26.9173V27.0466V27.1758V27.305V27.4343V27.5635V27.6927V27.822V27.9512V28.0805V28.2097V28.3389V28.4682V28.5974V28.7267V28.8559V28.9851V29.1144V29.2436V29.3728V29.5021V29.6313V29.7606V29.8898V30.019V30.1483V30.2775V30.4067V30.536V30.6652V30.7945V30.9237V31.0529V31.1822V31.3114V31.4407V31.5699V31.6991V31.8284V31.9576Z" fill="#919DE3"></path><path d="M78.7525 32.0868H78.6233H78.494H78.3648H78.2356H78.1063H77.9771H77.8478H77.7186H77.5894H77.4601H77.3309H77.2017V31.9576H77.0724H76.9432H76.8139H76.6847V31.8284H76.5555H76.4262H76.297V31.6991H76.1678H76.0385V31.5699H75.9093H75.78V31.4407H75.6508H75.5216V31.3114H75.3923V31.1822H75.2631V31.0529H75.1338V30.9237H75.0046V30.7945H74.8754V30.6652H74.7461V30.536V30.4067H74.6169V30.2775H74.4877V30.1483V30.019H74.3584V29.8898V29.7606H74.2292V29.6313V29.5021V29.3728H74.0999V29.2436V29.1144V28.9851V28.8559V28.7267H73.9707V28.5974V28.4682V28.3389V28.2097V28.0805V27.9512V27.822V27.6927V27.5635V27.4343V27.305V27.1758L74.0999 27.0466V26.9173V26.7881V26.6588V26.5296L74.2292 26.4004V26.2711V26.1419L74.3584 26.0127V25.8834L74.4877 25.7542V25.6249L74.6169 25.4957V25.3665L74.7461 25.2372L74.8754 25.108L75.0046 24.9787L75.1338 24.8495L75.2631 24.7203L75.3923 24.591L75.5216 24.4618L75.6508 24.3326L75.78 24.2033H75.9093L76.0385 24.0741H76.1678L76.297 23.9448H76.4262L76.5555 23.8156H76.6847H76.8139L76.9432 23.6864H77.0724H77.2017H77.3309H77.4601H77.5894H77.7186L77.8478 23.5571H77.9771H78.1063H78.2356V23.6864H78.3648H78.494H78.6233H78.7525H78.8818H79.011H79.1402V23.8156H79.2695H79.3987H79.5279V23.9448H79.6572H79.7864V24.0741H79.9157H80.0449V24.2033H80.1741H80.3034V24.3326H80.4326V24.4618H80.5618V24.591H80.6911V24.7203H80.8203V24.8495H80.9496V24.9787H81.0788V25.108V25.2372H81.208V25.3665H81.3373V25.4957V25.6249H81.4665V25.7542V25.8834V26.0127H81.5958V26.1419V26.2711V26.4004V26.5296H81.4665H81.3373H81.208H81.0788H80.9496H80.8203H80.6911H80.5618H80.4326H80.3034H80.1741V26.4004V26.2711V26.1419H80.0449V26.0127V25.8834H79.9157V25.7542V25.6249H79.7864V25.4957H79.6572V25.3665H79.5279V25.2372H79.3987V25.108H79.2695H79.1402V24.9787H79.011H78.8818H78.7525V24.8495H78.6233H78.494H78.3648H78.2356H78.1063H77.9771H77.8478H77.7186H77.5894H77.4601H77.3309L77.2017 24.9787H77.0724L76.9432 25.108H76.8139L76.6847 25.2372H76.5555L76.4262 25.3665L76.297 25.4957L76.1678 25.6249L76.0385 25.7542L75.9093 25.8834V26.0127L75.78 26.1419V26.2711L75.6508 26.4004V26.5296L75.5216 26.6588V26.7881V26.9173L75.3923 27.0466V27.1758V27.305V27.4343V27.5635V27.6927V27.822V27.9512V28.0805V28.2097V28.3389V28.4682V28.5974V28.7267V28.8559H75.5216V28.9851V29.1144V29.2436H75.6508V29.3728V29.5021H75.78V29.6313V29.7606H75.9093V29.8898H76.0385V30.019H76.1678V30.1483H76.297V30.2775H76.4262V30.4067H76.5555V30.536H76.6847H76.8139V30.6652H76.9432H77.0724V30.7945H77.2017H77.3309H77.4601H77.5894V30.9237H77.7186H77.8478H77.9771H78.1063H78.2356H78.3648L78.494 30.7945H78.6233H78.7525H78.8818L79.011 30.6652H79.1402L79.2695 30.536H79.3987L79.5279 30.4067L79.6572 30.2775L79.7864 30.1483L79.9157 30.019V29.8898L80.0449 29.7606V29.6313L80.1741 29.5021V29.3728L80.3034 29.2436L80.4326 29.1144H80.5618H80.6911H80.8203H80.9496H81.0788H81.208H81.3373H81.4665H81.5958V29.2436V29.3728V29.5021V29.6313L81.4665 29.7606V29.8898V30.019L81.3373 30.1483V30.2775L81.208 30.4067V30.536L81.0788 30.6652L80.9496 30.7945V30.9237L80.8203 31.0529L80.6911 31.1822L80.5618 31.3114H80.4326L80.3034 31.4407L80.1741 31.5699H80.0449L79.9157 31.6991H79.7864L79.6572 31.8284H79.5279H79.3987L79.2695 31.9576H79.1402H79.011H78.8818L78.7525 32.0868Z" fill="#919DE3"></path><path d="M49.1572 31.9578H49.028H48.8988H48.7695H48.6403H48.5111H48.3818H48.2526H48.1233H47.9941H47.8649V31.8285V31.6993V31.5701V31.4408V31.3116V31.1823V31.0531V30.9239V30.7946V30.6654V30.5361V30.4069V30.2777V30.1484V30.0192V29.89V29.7607V29.6315V29.5022V29.373V29.2438V29.1145V28.9853V28.856V28.7268V28.5976V28.4683V28.3391V28.2099V28.0806V27.9514V27.8221V27.6929V27.5637V27.4344V27.3052V27.176V27.0467V26.9175V26.7882V26.659V26.5298V26.4005V26.2713V26.142V26.0128V25.8836V25.7543V25.6251V25.4959V25.3666V25.2374V25.1081V24.9789V24.8497V24.7204V24.5912V24.462V24.3327V24.2035V24.0742V23.945V23.8158L47.9941 23.6865H48.1233H48.2526H48.3818H48.5111H48.6403H48.7695H48.8988H49.028H49.1572V23.8158V23.945V24.0742V24.2035V24.3327V24.462V24.5912V24.7204V24.8497V24.9789V25.1081V25.2374V25.3666V25.4959V25.6251V25.7543V25.8836V26.0128V26.142V26.2713V26.4005V26.5298V26.659V26.7882V26.9175V27.0467V27.176V27.3052V27.4344V27.5637V27.6929V27.8221V27.9514V28.0806V28.2099V28.3391V28.4683V28.5976V28.7268V28.856V28.9853V29.1145V29.2438V29.373V29.5022V29.6315V29.7607V29.89V30.0192V30.1484V30.2777V30.4069V30.5361V30.6654V30.7946V30.9239V31.0531V31.1823V31.3116V31.4408V31.5701V31.6993V31.8285V31.9578Z" fill="#919DE3"></path><path fill-rule="evenodd" clip-rule="evenodd" d="M69.5766 32.0868H69.7059L69.8351 31.9576H69.9644H70.0936H70.2228L70.3521 31.8284H70.4813H70.6106L70.7398 31.6991H70.869L70.9983 31.5699H71.1275L71.2567 31.4407L71.386 31.3114L71.5152 31.1822H71.6445L71.7737 31.0529V30.9237L71.9029 30.7945L72.0322 30.6652L72.1614 30.536V30.4067L72.2906 30.2775V30.1483L72.4199 30.019V29.8898V29.7606L72.5491 29.6313V29.5021V29.3728V29.2436H72.4199H72.2906H72.1614H72.0322H71.9029H71.7737H71.6445H71.5152H71.386L71.2567 29.3728L71.1275 29.5021V29.6313V29.7606L70.9983 29.8898L70.869 30.019L70.7398 30.1483L70.6106 30.2775L70.4813 30.4067L70.3521 30.536H70.2228L70.0936 30.6652H69.9644L69.8351 30.7945H69.7059H69.5766H69.4474L69.3182 30.9237H69.1889H69.0597H68.9305H68.8012H68.672H68.5427V30.7945H68.4135H68.2843H68.155H68.0258V30.6652H67.8965H67.7673H67.6381V30.536H67.5088H67.3796V30.4067H67.2504V30.2775H67.1211V30.1483H66.9919V30.019H66.8626V29.8898H66.7334V29.7606V29.6313H66.6042V29.5021V29.3728H66.4749V29.2436V29.1144V28.9851H66.3457V28.8559V28.7267V28.5974V28.4682V28.3389V28.2097L66.4749 28.0805H66.6042H66.7334H66.8626H66.9919H67.1211H67.2504H67.3796H67.5088H67.6381H67.7673H67.8965H68.0258H68.155H68.2843H68.4135H68.5427H68.672H68.8012H68.9305H69.0597H69.1889H69.3182H69.4474H69.5766H69.7059H69.8351H69.9644H70.0936H70.2228H70.3521H70.4813H70.6106H70.7398H70.869H70.9983H71.1275H71.2567H71.386H71.5152H71.6445H71.7737H71.9029H72.0322H72.1614H72.2906H72.4199H72.5491H72.6784V27.9512V27.822L72.8076 27.6927V27.5635V27.4343H72.6784V27.305V27.1758V27.0466V26.9173V26.7881V26.6588V26.5296V26.4004H72.5491V26.2711V26.1419V26.0127H72.4199V25.8834V25.7542V25.6249H72.2906V25.4957V25.3665H72.1614V25.2372H72.0322V25.108V24.9787H71.9029V24.8495H71.7737V24.7203H71.6445V24.591H71.5152V24.4618H71.386V24.3326H71.2567H71.1275V24.2033H70.9983V24.0741H70.869H70.7398V23.9448H70.6106H70.4813V23.8156H70.3521H70.2228H70.0936H69.9644V23.6864H69.8351H69.7059H69.5766H69.4474H69.3182H69.1889H69.0597V23.5571H68.9305H68.8012L68.672 23.6864H68.5427H68.4135H68.2843H68.155H68.0258H67.8965L67.7673 23.8156H67.6381H67.5088H67.3796L67.2504 23.9448H67.1211L66.9919 24.0741H66.8626L66.7334 24.2033L66.6042 24.3326H66.4749L66.3457 24.4618L66.2165 24.591L66.0872 24.7203L65.958 24.8495L65.8287 24.9787L65.6995 25.108V25.2372L65.5703 25.3665L65.441 25.4957V25.6249L65.3118 25.7542V25.8834L65.1825 26.0127V26.1419V26.2711L65.0533 26.4004V26.5296V26.6588V26.7881L64.9241 26.9173V27.0466V27.1758V27.305V27.4343V27.5635V27.6927V27.822V27.9512V28.0805V28.2097V28.3389V28.4682V28.5974V28.7267V28.8559H65.0533V28.9851V29.1144V29.2436V29.3728H65.1825V29.5021V29.6313V29.7606H65.3118V29.8898V30.019H65.441V30.1483V30.2775H65.5703V30.4067H65.6995V30.536V30.6652H65.8287V30.7945H65.958V30.9237H66.0872V31.0529H66.2165V31.1822H66.3457V31.3114H66.4749H66.6042V31.4407H66.7334V31.5699H66.8626H66.9919V31.6991H67.1211H67.2504V31.8284H67.3796H67.5088H67.6381V31.9576H67.7673H67.8965H68.0258H68.155H68.2843V32.0868H68.4135H68.5427H68.672H68.8012H68.9305H69.0597H69.1889H69.3182H69.4474H69.5766ZM71.257 26.9172V27.0465H71.1277H70.9985H70.8692H70.74H70.6108H70.4815H70.3523H70.223H70.0938H69.9646H69.8353H69.7061H69.5769H69.4476H69.3184H69.1891H69.0599H68.9307H68.8014H68.6722H68.543H68.4137H68.2845H68.1552H68.026H67.8968H67.7675H67.6383H67.509H67.3798H67.2506H67.1213H66.9921H66.8629H66.7336H66.6044H66.4751V26.9172H66.3459L66.4751 26.788V26.6588V26.5295L66.6044 26.4003V26.2711L66.7336 26.1418V26.0126L66.8629 25.8833L66.9921 25.7541V25.6249L67.1213 25.4956L67.2506 25.3664H67.3798L67.509 25.2371L67.6383 25.1079H67.7675L67.8968 24.9787H68.026L68.1552 24.8494H68.2845H68.4137H68.543H68.6722H68.8014L68.9307 24.7202V24.8494H69.0599H69.1891H69.3184H69.4476H69.5769H69.7061V24.9787H69.8353H69.9646H70.0938V25.1079H70.223V25.2371H70.3523H70.4815V25.3664H70.6108V25.4956H70.74V25.6249H70.8692V25.7541V25.8833H70.9985V26.0126H71.1277V26.1418V26.2711V26.4003H71.257V26.5295V26.6588V26.788V26.9172Z" fill="#919DE3"></path></g></svg>